<?xml version="1.0" encoding="UTF-8" standalone="no"?>
<!-- Created with Inkscape (http://www.inkscape.org/) -->

<svg
   width="800"
   height="800"
   viewBox="0 0 800 800"
   version="1.1"
   id="svg5"
   xml:space="preserve"
   inkscape:version="1.2.2 (b0a8486541, 2022-12-01)"
   sodipodi:docname="lpgc.svg"
   xmlns:inkscape="http://www.inkscape.org/namespaces/inkscape"
   xmlns:sodipodi="http://sodipodi.sourceforge.net/DTD/sodipodi-0.dtd"
   xmlns="http://www.w3.org/2000/svg"
   xmlns:svg="http://www.w3.org/2000/svg"><sodipodi:namedview
     id="namedview7"
     pagecolor="#ffffff"
     bordercolor="#000000"
     borderopacity="0.25"
     inkscape:showpageshadow="2"
     inkscape:pageopacity="0.0"
     inkscape:pagecheckerboard="0"
     inkscape:deskcolor="#d1d1d1"
     inkscape:document-units="px"
     showgrid="false"
     inkscape:zoom="0.48059846"
     inkscape:cx="480.65073"
     inkscape:cy="588.84917"
     inkscape:window-width="1920"
     inkscape:window-height="1051"
     inkscape:window-x="0"
     inkscape:window-y="0"
     inkscape:window-maximized="1"
     inkscape:current-layer="g78" /><defs
     id="defs2" /><g
     inkscape:label="Capa 1"
     inkscape:groupmode="layer"
     id="layer1"><g
       id="g78"
       transform="matrix(0.99183952,0,0,0.99183952,66.88781,93.489704)"><path
         style="fill:#000000;fill-rule:evenodd;stroke:#000000;stroke-width:14.3493;stroke-linecap:butt;stroke-linejoin:round;stroke-miterlimit:4.88163;stroke-dasharray:none;stroke-opacity:1"
         d="m 600.67024,-55.963217 -13.73848,16.2939 -10.35964,1.88913 -3.60332,12.51558 13.96296,9.20963 1.57684,18.1830398 -20.71997,25.2673002 -31.08029,8.97341 -15.5398,-19.83601 -8.78348,3.54217 -15.5405,-16.2939002 -6.75631,1.88913 -17.34181,-9.20956 -3.60332,5.66746 -15.54049,-16.5300698 -8.55833,1.88913 -3.37815,5.4312998 -5.18017,-1.88913 v 3.77826 l -12.16164,5.43130003 h -17.34181 l -29.50345,3.54217997 -11.93648,-5.43131 -17.3418,5.43131 -10.36033,-8.97348 -8.78349,3.54217 -5.18016,-10.8625998 h -5.17947 l -5.18017,-8.9734 1.80132,-5.4313 -10.35964,-12.75174 -1.80201,3.54218 -6.98147,-7.32051 -8.55833,5.66746 -6.98147,7.08427 -6.75701,-1.65297 -22.52198,10.86261 -17.34181,-5.4313 -3.37815,-14.64087 h -8.78349 l -5.18016,9.20956 -10.35964,3.54218 -12.16164,-5.4313 1.80131,10.8626 15.5405,12.75173 -10.36033,16.2938398 5.18016,3.54217 1.80131,12.7517302 -8.78348,3.54217 -5.17947,16.29384 1.80131,1.8892 3.37816,3.77826 h -3.37816 l 1.80201,16.29391 -8.78349,5.4313 6.98148,12.51557 -5.18016,20.072167 -13.73779,23.61433 -19.14382,10.86261 -5.18016,16.29383 -6.98148,3.54218 -5.18017,3.77826 -29.27828,8.97347 -1.80201,12.75173 -6.98148,8.97348 -27.702136,21.72513 -18.91795,5.43131 -12.16165,-3.54218 -12.16233,5.43131 6.98217,14.64086 -8.55832,29.04564 -5.18017,3.54217 v 8.9734 l -10.35963,18.18304 8.55762,41.79737 -8.55762,45.33947 1.57615,14.40478 20.94513,27.15644 25.90012,58.09131 15.5405,39.90817 12.16164,9.20963 8.55832,12.51557 6.981476,7.32044 22.52197,7.32043 3.37816,8.97347 6.98217,1.88913 10.35964,16.29391 h 11.93648 l 1.802,7.32043 8.78349,5.4313 -1.80201,5.4313 12.16234,8.9734 3.37816,-5.4313 1.80131,5.4313 3.37816,-1.88912 -1.80132,3.77825 13.96365,10.86261 1.57615,7.32043 5.40533,-5.4313 8.55832,3.54217 10.36033,19.83601 -1.802,7.3205 5.18016,-1.8892 10.35964,12.75173 v -5.4313 l 5.18016,-5.43123 13.96365,-3.54217 15.5398,8.9734 29.50415,12.75173 11.93648,-7.32043 24.32328,21.72521 32.88161,3.77826 12.16234,-5.4313 6.75631,-34.47687 10.36033,-7.32043 36.48493,-12.75174 17.11664,-17.94687 h 17.34181 l 27.70213,-20.07224 67.56523,-10.86253 20.71996,-8.97348 10.36033,-18.18303 -3.60402,-10.86261 6.98218,-30.93477 6.98147,-10.86253 h 1.80201 l 3.37816,-1.8892 h 6.98148 l 8.55832,-14.4047 12.16234,3.54217 6.98147,-5.4313 -1.802,-21.72524 8.55832,-8.9734 -6.75632,1.65297 -5.18016,-7.08427 -6.98148,-20.07217 5.18017,-8.97347 5.17947,-9.20956 1.802,-27.15652 3.37816,-18.18303 15.5405,-10.8626 17.3418,10.8626 1.57615,-8.9734 -13.73848,-7.32043 v -10.86261 l -15.5398,-5.4313 -1.80201,-5.4313 5.18016,-3.54217 -6.75631,-5.4313 5.18016,-9.20957 -1.802,-3.54217 h -5.18017 v -12.75173 l 3.37816,-7.32043 6.98217,1.88913 -3.37816,-14.40471 15.5398,-12.75173 -3.60332,-9.20956 -6.75701,-1.65304 1.57685,-7.32044 -3.37816,-5.4313 3.37816,-7.32043 -15.5398,-10.8626 -3.37885,-21.72514 -12.16165,-5.4313 -20.71996,-14.40478 -6.98148,-11.09869 1.80131,-8.97347 -8.55832,-16.29391 10.36033,-23.61427 -5.18016,-14.40477 6.75631,-29.045637 -13.73779,-30.9347 -3.60402,-1.8892 -1.57614,-1.65297 -6.98148,-10.86261 6.98148,-9.20956 v -1.65304 h -6.98148 l 3.37815,-9.2095602 V 0.23885283 l 5.17947,7.32043997 V 0.23885283 h 3.60402 8.55832 l 6.98148,-7.32043003 3.37816,-14.4046998 1.802,36.12991 1.80132,-43.45034 6.75701,-1.88921 -6.75701,-1.65297 3.37885,-11.09876 -5.18017,-8.9734 z"
         id="GranCanaria" /></g></g></svg>
