<?xml version="1.0" encoding="UTF-8" standalone="no"?>
<!-- Created with Inkscape (http://www.inkscape.org/) -->

<svg
   width="800"
   height="800"
   viewBox="0 0 211.66666 211.66667"
   version="1.1"
   id="svg5"
   inkscape:version="1.2.2 (b0a8486541, 2022-12-01)"
   sodipodi:docname="home.svg"
   xmlns:inkscape="http://www.inkscape.org/namespaces/inkscape"
   xmlns:sodipodi="http://sodipodi.sourceforge.net/DTD/sodipodi-0.dtd"
   xmlns="http://www.w3.org/2000/svg"
   xmlns:svg="http://www.w3.org/2000/svg">
  <sodipodi:namedview
     id="namedview7"
     pagecolor="#ffffff"
     bordercolor="#000000"
     borderopacity="0.25"
     inkscape:showpageshadow="2"
     inkscape:pageopacity="0.0"
     inkscape:pagecheckerboard="0"
     inkscape:deskcolor="#d1d1d1"
     inkscape:document-units="mm"
     showgrid="false"
     inkscape:zoom="0.2604753"
     inkscape:cx="19.195678"
     inkscape:cy="846.52939"
     inkscape:window-width="1920"
     inkscape:window-height="1008"
     inkscape:window-x="0"
     inkscape:window-y="0"
     inkscape:window-maximized="1"
     inkscape:current-layer="g111" />
  <defs
     id="defs2" />
  <g
     inkscape:label="Capa 1"
     inkscape:groupmode="layer"
     id="layer1">
    <g
       inkscape:groupmode="layer"
       inkscape:label="Image"
       id="g111"
       transform="matrix(0.26458333,0,0,0.26458333,3.3206904,83.904803)">
      <path
         style="stroke-width:1.28256"
         d="m 194.03972,396.30488 c -13.13997,-3.46832 -21.2328,-8.19841 -31.79528,-18.58372 -9.97825,-9.81086 -17.00508,-22.34603 -19.62723,-35.01305 -0.95247,-4.60118 -1.40693,-39.91958 -1.40693,-109.33873 V 130.82725 h -8.70847 c -30.71505,0 -55.750197,-20.99546 -60.791296,-50.981994 -1.996581,-11.87652 -0.06897,-24.4768 5.542961,-36.23248 3.676191,-7.70076 14.754254,-19.111225 145.230415,-149.587916 130.47617,-130.47668 141.88658,-141.55479 149.58731,-145.23099 17.38856,-8.30099 36.64571,-8.34219 53.71096,-0.11489 7.8752,3.7967 18.77194,14.3734 149.74391,145.34588 130.47615,130.476691 141.55421,141.887156 145.23041,149.587916 5.61191,11.75568 7.53955,24.35596 5.54296,36.23248 -5.03797,29.967924 -30.07787,50.981994 -60.74899,50.981994 h -8.66616 l -0.36294,106.13231 -0.36295,106.13232 -3.42803,8.82309 c -9.09126,23.39918 -27.81845,39.7831 -51.45513,45.01676 -7.87131,1.74286 -17.94909,1.99228 -67.82933,1.67873 -56.87199,-0.35749 -58.68792,-0.44554 -62.12494,-3.01263 -1.94727,-1.4544 -4.73047,-4.23761 -6.18487,-6.1849 -2.59326,-3.47208 -2.65676,-5.1952 -3.28565,-89.16146 l -0.64128,-85.62095 -3.89373,-6.31044 c -4.3775,-7.09442 -14.16884,-13.79931 -22.05488,-15.10268 -6.2869,-1.03907 -66.22427,-1.03907 -72.51116,0 -7.88605,1.30337 -17.67738,8.00826 -22.05488,15.10268 l -3.89374,6.31044 -0.64128,85.62095 c -0.62888,83.96626 -0.69239,85.68938 -3.28565,89.16146 -1.4544,1.94729 -4.23762,4.7305 -6.18494,6.1849 -3.44486,2.57291 -5.15882,2.65164 -63.40751,2.91296 -55.54683,0.24919 -60.54343,0.09 -69.24168,-2.20591 z"
         id="path223" />
    </g>
  </g>
</svg>
