<?xml version="1.0" encoding="UTF-8" standalone="no"?>
<!-- Created with Inkscape (http://www.inkscape.org/) -->

<svg
   width="800"
   height="800"
   viewBox="0 0 800 800"
   version="1.1"
   id="svg5"
   xml:space="preserve"
   inkscape:version="1.2.2 (b0a8486541, 2022-12-01)"
   sodipodi:docname="tenerife.svg"
   xmlns:inkscape="http://www.inkscape.org/namespaces/inkscape"
   xmlns:sodipodi="http://sodipodi.sourceforge.net/DTD/sodipodi-0.dtd"
   xmlns="http://www.w3.org/2000/svg"
   xmlns:svg="http://www.w3.org/2000/svg"><sodipodi:namedview
     id="namedview7"
     pagecolor="#ffffff"
     bordercolor="#000000"
     borderopacity="0.25"
     inkscape:showpageshadow="2"
     inkscape:pageopacity="0.0"
     inkscape:pagecheckerboard="0"
     inkscape:deskcolor="#d1d1d1"
     inkscape:document-units="px"
     showgrid="false"
     inkscape:zoom="0.48059846"
     inkscape:cx="482.73147"
     inkscape:cy="590.9299"
     inkscape:window-width="1920"
     inkscape:window-height="1051"
     inkscape:window-x="0"
     inkscape:window-y="0"
     inkscape:window-maximized="1"
     inkscape:current-layer="g78" /><defs
     id="defs2" /><g
     inkscape:label="Capa 1"
     inkscape:groupmode="layer"
     id="layer1"><g
       id="g78"
       transform="matrix(0.99183952,0,0,0.99183952,66.88781,93.489704)"><path
         style="fill:#fff8dc;fill-rule:evenodd;stroke:#000000;stroke-width:2.01646;stroke-linecap:butt;stroke-linejoin:round;stroke-miterlimit:4.88163;stroke-dasharray:none;stroke-opacity:1"
         d="m 1173.3581,343.38493 -1.9769,2.23614 -1.4907,0.25926 -0.5185,1.71761 2.0092,1.26391 0.2269,2.4954 -2.9815,3.46763 -4.4723,1.23149 -2.2361,-2.72225 -1.2639,0.48612 -2.2362,-2.23614 -0.9722,0.25926 -2.4954,-1.2639 -0.5185,0.77779 -2.2362,-2.26855 -1.2315,0.25926 -0.4861,0.74538 -0.7454,-0.25926 v 0.51852 l -1.75,0.74538 h -2.4954 l -4.2454,0.48612 -1.7176,-0.74538 -2.4954,0.74538 -1.4908,-1.2315 -1.2639,0.48612 -0.7454,-1.49076 h -0.7453 l -0.7454,-1.23149 0.2592,-0.74538 -1.4907,-1.75002 -0.2593,0.48612 -1.0046,-1.00465 -1.2315,0.77779 -1.0046,0.97223 -0.9723,-0.22685 -3.2408,1.49076 -2.4954,-0.74538 -0.4861,-2.00928 h -1.2639 l -0.7454,1.2639 -1.4907,0.48612 -1.75,-0.74538 0.2592,1.49076 2.2362,1.75002 -1.4908,2.23613 0.7454,0.48612 0.2592,1.75002 -1.2639,0.48612 -0.7453,2.23613 0.2592,0.25927 0.4861,0.51852 h -0.4861 l 0.2593,2.23614 -1.2639,0.74538 1.0046,1.71761 -0.7454,2.75466 -1.9768,3.24078 -2.7547,1.49076 -0.7454,2.23613 -1.0046,0.48612 -0.7454,0.51852 -4.213,1.2315 -0.2593,1.75002 -1.0046,1.2315 -3.9862,2.98151 -2.7222,0.74538 -1.75,-0.48612 -1.7501,0.74538 1.0047,2.00928 -1.2315,3.98616 -0.7454,0.48612 v 1.23149 l -1.4907,2.4954 1.2314,5.73618 -1.2314,6.22229 0.2268,1.97688 3.0139,3.72689 3.7269,7.97232 2.2362,5.47691 1.75,1.26391 1.2315,1.71761 1.0046,1.00464 3.2408,1.00464 0.4861,1.2315 1.0047,0.25926 1.4907,2.23614 h 1.7176 l 0.2593,1.00464 1.2639,0.74538 -0.2593,0.74538 1.7501,1.23149 0.4861,-0.74538 0.2592,0.74538 0.4861,-0.25926 -0.2592,0.51852 2.0093,1.49076 0.2268,1.00464 0.7778,-0.74538 1.2315,0.48612 1.4908,2.72225 -0.2593,1.00465 0.7454,-0.25927 1.4907,1.75002 v -0.74538 l 0.7454,-0.74537 2.0093,-0.48612 2.2361,1.23149 4.2455,1.75002 1.7176,-1.00464 3.5,2.98152 4.7315,0.51852 1.7501,-0.74538 0.9722,-4.73153 1.4908,-1.00464 5.25,-1.75002 2.463,-2.46299 h 2.4954 l 3.9862,-2.75467 9.7223,-1.49075 2.9815,-1.2315 1.4908,-2.4954 -0.5186,-1.49076 1.0047,-4.24542 1.0046,-1.49075 h 0.2593 l 0.4861,-0.25927 h 1.0046 l 1.2315,-1.97687 1.7501,0.48612 1.0046,-0.74538 -0.2593,-2.98152 1.2315,-1.23149 -0.9722,0.22685 -0.7454,-0.97223 -1.0046,-2.75466 0.7454,-1.2315 0.7453,-1.2639 0.2593,-3.7269 0.4861,-2.4954 2.2362,-1.49076 2.4954,1.49076 0.2268,-1.23149 -1.9769,-1.00464 v -1.49076 l -2.2361,-0.74538 -0.2593,-0.74538 0.7454,-0.48612 -0.9722,-0.74538 0.7454,-1.2639 -0.2593,-0.48612 h -0.7454 v -1.75002 l 0.4861,-1.00464 1.0047,0.25926 -0.4861,-1.97687 2.2361,-1.75002 -0.5185,-1.2639 -0.9723,-0.22686 0.2269,-1.00464 -0.4861,-0.74538 0.4861,-1.00464 -2.2361,-1.49076 -0.4862,-2.98151 -1.75,-0.74538 -2.9815,-1.97688 -1.0046,-1.52316 0.2592,-1.2315 -1.2315,-2.23614 1.4908,-3.24077 -0.7454,-1.97688 0.9722,-3.98616 -1.9768,-4.24541 -0.5186,-0.25927 -0.2268,-0.22685 -1.0046,-1.49076 1.0046,-1.2639 v -0.22686 h -1.0046 l 0.4861,-1.2639 v -1.2315 l 0.7453,1.00464 v -1.00464 h 0.5186 1.2315 l 1.0046,-1.00464 0.4861,-1.97687 0.2593,4.95839 0.2592,-5.96303 0.9723,-0.25927 -0.9723,-0.22685 0.4862,-1.52317 -0.7454,-1.23149 z"
         id="GranCanaria" /><path
         style="fill:#000000;fill-rule:evenodd;stroke:#000000;stroke-width:9.27873;stroke-linejoin:round;stroke-miterlimit:4.88163;stroke-dasharray:none;stroke-opacity:1"
         d="m 681.48212,13.945288 -2.48409,2.514749 2.48409,1.640048 z m 0.86405,6.669546 -8.31641,3.38945 h -5.83232 l -10.80054,9.293604 -37.26191,11.699047 -17.49691,-7.544251 -14.0407,1.640048 -14.14872,-8.309593 -1.62008,5.794844 -9.93654,-5.029498 -4.21219,6.778901 -3.34819,-0.874702 -4.10421,2.514749 -9.07248,-5.904199 -8.31641,3.38945 -2.48413,-6.669545 -4.21219,-0.874702 -8.20843,5.029498 -3.34819,16.83785 -18.25294,5.0295 -0.86405,3.28009 -9.93649,4.26411 -16.63285,-1.74936 -13.1767,9.29361 -0.86405,5.02949 -5.83228,3.38941 -5.83231,3.28009 -9.93649,10.16835 -0.75603,10.824295 -4.21224,5.9042 0.86405,2.51475 -4.96826,13.4484 -13.28468,7.5442 -1.62008,6.7789 -5.83232,-3.38945 2.48414,3.38945 -6.69633,5.0295 0.86405,3.28009 -1.62008,7.65356 -9.1805,-0.8747 -0.75603,4.15479 -5.83227,0.8747 3.24016,6.66955 -4.10422,5.90415 -12.42066,5.9042 -5.83227,-2.51474 -3.34819,1.64004 -5.7243,14.3231 -19.11699,8.41891 -16.63281,-0.87466 -1.62008,-2.51475 -2.48413,2.51475 -9.07249,-0.8747 -4.21223,5.90415 -4.10417,2.51475 -1.72811,-2.51475 -2.48413,2.51475 -2.48413,2.51475 -2.48414,4.26415 -4.96822,-0.8747 -8.31645,6.66955 -5.72429,0.87465 -3.34819,-3.3894 -4.96822,6.77885 -10.80059,-0.8747 -9.93648,-0.8747 -11.6646,1.7494 -6.58834,-5.0295 -4.21224,1.64005 -4.10417,1.64005 -4.96827,-5.79484 -5.83232,1.64004 -4.10421,-1.64004 -2.48413,1.64004 -2.48409,-3.3894 -2.48413,9.2936 -7.4524,2.51475 -7.4524,-1.7494 -1.72806,-3.2801 -1.62008,9.1843 -4.96827,3.38945 h -11.66459 l -5.83232,-4.26415 -6.58835,11.80835 -4.10417,-0.8747 -1.7281,-5.02945 -5.83232,1.74935 -11.55657,10.059 -12.42067,-5.0295 -4.96822,4.1548 -2.48413,-3.38945 -23.221207,9.2936 -7.560378,-15.08845 -1.620081,3.2801 -4.968267,-1.64005 -13.284673,-10.05895 v -5.0295 l -4.104214,-0.8747 -9.936487,2.51475 -0.864053,3.38945 -6.696371,-0.8747 -11.556568,8.4189 v 4.1548 H 8.7156417 l -3.240208,5.9042 -8.316406,3.38945 -2.484134,-2.51475 -11.6645947,6.66954 -7.4524,-2.51475 -12.42062,4.26411 -5.83232,11.69904 3.34819,9.29361 4.10421,-0.8747 10.80054,5.02949 7.4524,7.5442 1.72811,8.41895 12.4206187,10.93365 1.620081,11.69905 7.4524,3.3894 9.1804583,12.57375 -1.620081,5.02949 4.104215,10.05895 5.832273,0.8747 2.484133,0.87471 -0.864052,4.15479 9.180504,5.02945 1.620081,13.44845 -4.104214,6.77885 0.756029,5.0295 -3.348186,0.76535 3.348186,2.51475 1.728104,7.65355 -2.484133,2.51475 2.484133,1.64005 4.104215,10.05895 -1.620081,10.9337 4.104168,5.90415 3.348186,0.76539 1.620081,8.4189 4.104214,3.38946 3.348186,10.93365 6.696325,0.8747 4.968267,5.79484 4.104214,19.3526 26.569346,46.14005 h 4.96827 l -0.864056,4.26415 h 5.832316 l 1.62008,5.90415 3.34819,-0.8747 -0.86405,5.0295 16.63286,11.69904 3.34814,5.90415 3.24016,20.2273 -4.10421,12.5737 6.69637,3.2801 6.58834,-0.76535 5.83228,6.66955 -0.86406,-5.0295 6.58835,5.0295 1.72811,14.3231 4.10421,5.0295 -3.24016,19.35255 5.72429,7.54425 9.93649,5.02949 10.80054,1.64005 7.4524,-7.54425 3.34819,0.87471 6.69632,-5.0295 4.96827,3.28009 6.58835,-1.64004 5.83227,4.15479 4.10421,-5.79484 4.96827,0.76534 8.31641,-10.93365 25.70534,-9.18429 38.99001,-3.38941 9.18046,6.77886 6.58835,-8.4189 -2.48414,-4.26415 0.86405,-5.79485 7.45236,-0.8747 2.48413,-7.5442 h 4.96827 l 4.96826,-10.059 h 4.96823 l 1.62008,-5.02949 6.69637,-4.26411 4.10421,-10.059 9.93649,-1.64004 2.48413,-11.80836 8.31641,-6.66954 9.1805,-13.4484 7.45236,-2.51475 0.86405,-10.05895 10.69256,-6.77885 2.48414,-8.41895 h 6.69632 v -5.79485 l 3.34819,-2.51475 4.96826,1.64005 7.45236,-9.2936 -8.31641,-6.66955 3.34814,-9.18425 h 4.10422 l 1.62008,-4.26415 -4.10417,-5.90415 3.34814,-7.54425 -1.72806,-8.41895 4.21219,-5.02945 2.48413,-5.79484 -3.34818,-6.7789 14.90475,-20.9926 1.72811,-10.059 22.35715,-40.3452 v -13.44844 l 22.35715,-23.50735 1.72806,-15.0885 -3.34814,-10.93365 -3.34818,-10.05895 -2.48414,-19.3526 4.96827,-4.15479 4.21219,-19.3526 12.42067,-7.5442 9.07244,-10.059 2.59215,-0.8747 4.10422,-5.02945 9.07248,1.74935 12.52864,-10.93365 9.93649,-8.41895 4.96827,-8.4189 14.0407,-11.69904 7.4524,-11.80835 19.11699,-7.54421 2.48409,-13.4484 0.86405,-3.38945 9.07248,-15.85384 10.80054,-4.2641 -0.86405,-1.64005 6.69637,0.76535 1.62008,-3.2801 13.28467,-5.0295 -7.4524,6.66955 14.14873,-7.54425 9.07248,-10.93365 8.31641,-0.8747 4.10421,-5.794835 15.76881,-7.54421 12.42066,2.51475 4.21219,-11.80839 4.10422,-3.38941 8.31645,3.38941 -3.34818,-5.02946 1.7281,-10.93369 7.45235,-6.6695 v -7.54425 l -4.96822,-2.51475 0.75603,-6.778853 -4.10421,-5.029498 -4.96827,-0.874701 -0.86405,-5.794844 2.48413,-1.749403 z"
         id="Tenerife"
         sodipodi:nodetypes="ccccccccccccccccccccccccccccccccccccccccccccccccccccccccccccccccccccccccccccccccccccccccccccccccccccccccccccccccccccccccccccccccccccccccccccccccccccccccccccccccccccccccccccccccccccccccccccccccccccccccccccccccccccccccccccccccccccccccccccccccccccccccccccccccccccccccccc" /></g></g></svg>
