<?xml version="1.0" encoding="utf-8"?>
<!-- Generator: Adobe Illustrator 24.1.1, SVG Export Plug-In . SVG Version: 6.00 Build 0)  -->
<svg version="1.1" id="Capa_1" xmlns="http://www.w3.org/2000/svg" xmlns:xlink="http://www.w3.org/1999/xlink" x="0px" y="0px"
	 viewBox="0 0 478.1 419.7" style="enable-background:new 0 0 478.1 419.7;" xml:space="preserve">
<style type="text/css">
	.st0{fill:#56540C;stroke:#56540C;stroke-miterlimit:10;}
	.st1{fill:#AD9A2B;}
	.st2{fill:#F1F1F1;}
	.st3{clip-path:url(#SVGID_2_);}
	.st4{fill:#D8D8D8;}
	.st5{enable-background:new    ;}
	.st6{fill:#303030;}
	.st7{fill:#1C1D20;}
</style>
<g id="somnra">
	<path class="st0" d="M248.1,11.3l208.1,372.7c5.7,10.2,2,23-8.1,28.7c-3.1,1.8-6.7,2.7-10.3,2.7H21.6c-11.7,0-21.1-9.5-21.1-21.1
		c0-3.6,0.9-7.1,2.7-10.3L211.3,11.3C217,1.2,229.8-2.5,240,3.2C243.4,5.1,246.2,7.9,248.1,11.3z"/>
	<path class="st0" d="M238.2,80.8l157.3,281.7c2.6,4.7,0.9,10.7-3.8,13.3c-1.5,0.8-3.1,1.2-4.8,1.2H72.4c-5.4,0-9.8-4.4-9.8-9.8
		c0-1.7,0.4-3.3,1.2-4.8L221.2,80.8c2.6-4.7,8.6-6.4,13.3-3.8C236,77.9,237.3,79.2,238.2,80.8z"/>
</g>
<g id="s">
	<path class="st1" d="M267.4,11.8l208.1,372.7c5.7,10.2,2,23-8.1,28.7c-3.1,1.8-6.7,2.7-10.3,2.7H40.9c-11.7,0-21.1-9.5-21.1-21.1
		c0-3.6,0.9-7.1,2.7-10.3L230.5,11.8c5.7-10.2,18.5-13.8,28.7-8.1C262.7,5.6,265.5,8.4,267.4,11.8z"/>
	<path class="st2" d="M257.5,81.2l157.3,281.7c2.6,4.7,0.9,10.7-3.8,13.3c-1.5,0.8-3.1,1.2-4.8,1.2H91.7c-5.4,0-9.8-4.4-9.8-9.8
		c0-1.7,0.4-3.3,1.2-4.8L240.4,81.2c2.6-4.7,8.6-6.4,13.3-3.8C255.3,78.3,256.6,79.6,257.5,81.2z"/>
	<g>
		<defs>
			<path id="SVGID_1_" d="M257.1,80.7l157.3,281.7c2.6,4.7,0.9,10.7-3.8,13.3c-1.5,0.8-3.1,1.2-4.8,1.2H91.4c-5.4,0-9.8-4.4-9.8-9.8
				c0-1.7,0.4-3.3,1.2-4.8L240.1,80.7c2.6-4.7,8.6-6.4,13.3-3.8C255,77.8,256.3,79.1,257.1,80.7z"/>
		</defs>
		<clipPath id="SVGID_2_">
			<use xlink:href="#SVGID_1_"  style="overflow:visible;"/>
		</clipPath>
		<g class="st3">
			
				<rect x="-18.9" y="202.4" transform="matrix(0.4423 -0.8969 0.8969 0.4423 -106.3207 264.69)" class="st4" width="357" height="30.9"/>
		</g>
	</g>
</g>
<g class="st5">
	<path class="st6" d="M182.6,316.1c0-5.1,2.7-7.8,7.8-7.8h6c5.1,0,7.8,2.7,7.8,7.8v27.6c0,5.1-2.7,7.8-7.8,7.8h-6
		c-5.1,0-7.8-2.7-7.8-7.8V316.1z M195.1,344.5c1.4,0,2.2-0.7,2.2-2.2v-24.9c0-1.4-0.8-2.2-2.2-2.2H192c-1.4,0-2.2,0.8-2.2,2.2v24.9
		c0,1.5,0.8,2.2,2.2,2.2H195.1z"/>
	<path class="st6" d="M231.3,326c0,2-1.5,3.5-3.4,3.8v0.1c1.9,0.3,3.4,1.8,3.4,3.8v9.9c0,5.1-2.8,7.8-7.8,7.8h-13
		c-0.5,0-0.9-0.3-0.9-0.9v-41.5c0-0.6,0.3-0.9,0.9-0.9h13c5.1,0,7.8,2.7,7.8,7.8V326z M224.1,317.6c0-1.4-0.7-2.2-2.2-2.2H217v10.9
		h4.9c1.4,0,2.2-0.8,2.2-2.1V317.6z M224.1,335.6c0-1.4-0.7-2.2-2.2-2.2H217v10.9h4.9c1.4,0,2.2-0.7,2.2-2.2V335.6z"/>
</g>
<g class="st5">
	<path class="st6" d="M258.9,329.3c0,3.6-1.3,6-3.9,7.1l3.7,14.1c0.2,0.6-0.2,1-0.8,1h-5.6c-0.5,0-0.8-0.3-0.9-0.8l-3.6-13.7H244
		v13.6c0,0.5-0.3,0.9-0.9,0.9h-5.6c-0.5,0-0.9-0.3-0.9-0.9v-41.5c0-0.5,0.3-0.9,0.9-0.9h13.6c5.1,0,7.8,2.7,7.8,7.8V329.3z
		 M249.4,329.9c1.4,0,2.2-0.8,2.2-2.2v-10.2c0-1.4-0.8-2.2-2.2-2.2H244v14.5H249.4z"/>
	<path class="st6" d="M281.3,351.5c-0.5,0-0.8-0.3-0.9-0.8l-1.5-7.9h-9.6l-1.5,7.9c-0.1,0.5-0.4,0.8-0.9,0.8h-5.8
		c-0.6,0-0.9-0.3-0.7-0.9l9-41.5c0.1-0.5,0.4-0.8,0.9-0.8h7.5c0.5,0,0.8,0.2,0.9,0.8l9,41.5c0.1,0.6-0.1,0.9-0.8,0.9H281.3z
		 M274.1,317.7l-3.5,18.8h6.9L274.1,317.7z"/>
</g>
<g class="st5">
	<path class="st6" d="M306.5,308.3c5.1,0,7.8,2.7,7.8,7.8v5.7c0,0.5-0.3,0.9-0.9,0.9h-5.6c-0.5,0-0.9-0.3-0.9-0.9v-4.2
		c0-1.4-0.7-2.2-2.2-2.2h-2.6c-1.3,0-2.2,0.8-2.2,2.2v7.5l12.9,4.2c0.9,0.4,1.4,1,1.4,2v12.5c0,5.1-2.7,7.8-7.8,7.8h-6
		c-5,0-7.8-2.7-7.8-7.8v-5.7c0-0.6,0.3-0.9,0.9-0.9h5.6c0.6,0,0.9,0.3,0.9,0.9v4.2c0,1.5,0.8,2.2,2.2,2.2h2.6c1.4,0,2.2-0.7,2.2-2.2
		V335l-12.8-4.2c-1-0.3-1.5-1-1.5-2v-12.7c0-5.1,2.8-7.8,7.8-7.8H306.5z"/>
</g>
<path class="st7" d="M266.3,182.4c0-5.3,4.3-9.5,9.5-9.6s9.5,4.3,9.5,9.5s-4.3,9.5-9.5,9.6c0,0,0,0,0,0l0,0
	C270.6,191.9,266.3,187.7,266.3,182.4C266.3,182.4,266.3,182.4,266.3,182.4"/>
<path class="st7" d="M270.8,263.2c-7.3,0-7.3,6.3-7.3,6.3c-4.9,0-9.4,2.9-11.6,7.3h76.8c-2-9.5-10.5-8.3-10.5-8.3
	c0-3.2-4.3-4.3-4.3-4.3c-1-9.4-9.5-8.3-9.5-8.3c-11.6-14.6-25.2-2-25.2-2l-27.4-23.2c0,0,12.6-26.2,12.6-27.4c3.2-5.3,0-7.3,0-7.3
	l-10.5-16.9c-1-3.2-5.3-2-5.3-2l-27.4,1c-2.3,0-4.2,1.8-4.3,4.1v0.2l-3.2,17.9l-4.3-4.3c-1-0.7-2.4-0.4-3.1,0.7c0,0,0,0,0,0
	c-0.8,1-0.9,2.5-0.2,3.6l9.5,9.5l-5.3,5.3l1.7,32.5l-7.3,23.1c-2,6.3,4.3,8.3,4.3,8.3c5.3,2,8.3-4.3,8.3-4.3l8.3-25.2v-20.1
	l12.6,15.8l-12.6,24.2c-2,5.3,3.2,8.3,3.2,8.3c3.2,2,7.5,1,9.5-2.2l13.6-26.2c3.2-6.3,0-9.5,0-9.5l-1-3.2l24.2,21.1
	C272.4,258.6,270.8,260.7,270.8,263.2z M224.5,198l2-9.5h7.3L224.5,198z M242.3,222.2l-6.3-4.3l10.6-6.3L242.3,222.2z"/>
</svg>
