<?xml version="1.0" encoding="utf-8"?>
<!-- Generator: Adobe Illustrator 24.1.1, SVG Export Plug-In . SVG Version: 6.00 Build 0)  -->
<svg version="1.1" id="Capa_1" xmlns="http://www.w3.org/2000/svg" xmlns:xlink="http://www.w3.org/1999/xlink" x="0px" y="0px"
	 viewBox="0 0 477.6 419.2" style="enable-background:new 0 0 477.6 419.2;" xml:space="preserve">
<style type="text/css">
	.st0{fill:#173747;}
	.st1{fill:#306099;}
	.st2{fill:#F1F1F1;}
	.st3{clip-path:url(#SVGID_2_);}
	.st4{fill:#D8D8D8;}
	.st5{fill:#2D2D2D;stroke:#2D2D2D;stroke-width:2;stroke-miterlimit:10;}
	.st6{fill:#303030;}
</style>
<g id="somnra">
	<path class="st0" d="M247.6,10.8l208.1,372.7c5.7,10.2,2,23-8.1,28.7c-3.1,1.8-6.7,2.7-10.3,2.7H21.1C9.5,414.9,0,405.5,0,393.8
		c0-3.6,0.9-7.1,2.7-10.3L210.8,10.8c5.7-10.2,18.5-13.8,28.7-8.1C242.9,4.6,245.7,7.4,247.6,10.8z"/>
	<path class="st0" d="M237.7,80.3L395,362c2.6,4.7,0.9,10.7-3.8,13.3c-1.5,0.8-3.1,1.2-4.8,1.2H71.9c-5.4,0-9.8-4.4-9.8-9.8
		c0-1.7,0.4-3.3,1.2-4.8L220.7,80.3c2.6-4.7,8.6-6.4,13.3-3.8C235.5,77.4,236.8,78.7,237.7,80.3z"/>
</g>
<g id="s">
	<path class="st1" d="M266.9,11.3l208,372.7c5.7,10.2,2,23-8.1,28.7c-3.1,1.8-6.7,2.7-10.3,2.7H40.4c-11.7,0-21.1-9.5-21.1-21.1
		c0-3.6,0.9-7.1,2.7-10.3L230,11.3c5.7-10.2,18.5-13.8,28.7-8.1C262.2,5.1,265,7.9,266.9,11.3z"/>
	<path class="st2" d="M257,80.7l157.3,281.7c2.6,4.7,0.9,10.7-3.8,13.3c-1.5,0.8-3.1,1.2-4.8,1.2H91.2c-5.4,0-9.8-4.4-9.8-9.8
		c0-1.7,0.4-3.3,1.2-4.8L239.9,80.7c2.6-4.7,8.6-6.4,13.3-3.8C254.8,77.8,256.1,79.1,257,80.7z"/>
	<g>
		<g>
			<defs>
				<path id="SVGID_1_" d="M256.6,80.2l157.3,281.7c2.6,4.7,0.9,10.7-3.8,13.3c-1.5,0.8-3.1,1.2-4.8,1.2H90.9
					c-5.4,0-9.8-4.4-9.8-9.8c0-1.7,0.4-3.3,1.2-4.8L239.6,80.2c2.6-4.7,8.6-6.4,13.3-3.8C254.5,77.3,255.8,78.6,256.6,80.2z"/>
			</defs>
			<clipPath id="SVGID_2_">
				<use xlink:href="#SVGID_1_"  style="overflow:visible;"/>
			</clipPath>
			<g class="st3">
				
					<rect x="-19.3" y="201.9" transform="matrix(0.4423 -0.8969 0.8969 0.4423 -106.2145 263.9931)" class="st4" width="357" height="30.9"/>
			</g>
		</g>
	</g>
</g>
<g>
	<path class="st5" d="M290.7,244c0.4,1.6,0.4,3.2,0.2,4.9c-0.3,1.6-0.6,3.1-0.9,4.7c-0.2,5-1.6,9.8-3.6,14.3
		c-1.6,3.7-3.4,7.4-5.4,10.9c-2.6,4.9-7.7,7.1-13.2,6.2c-9.2-1.4-18.5-2.6-27.7-3.9c-8.3-1.2-16.6-2.4-24.9-3.6
		c-1.5-0.2-3.1-0.4-4.6-0.7c-0.9-0.2-1.2,0.2-1.2,1c-0.2,2.5-0.8,4.7-2.9,6.3c-1.8,1.4-3.8,1.9-6,1.5c-3.1-0.5-6.2-0.9-9.3-1.4
		c-4.3-0.6-7.1-4.2-6.5-8.6c0.9-6.1,1.8-12.3,2.7-18.4c0.2-1.4-0.2-2.7-0.3-4c-0.9-7.1,0.3-14.1,1.5-21c0.2-1,0.8-2,1.2-3.1
		c-0.7-0.1-1.3-0.2-2-0.4c-2.9-0.5-4.6-2.6-4.3-5.5c0.2-2.3,0.5-4.7,2.2-6.5c2.5-2.6,5.5-2.7,8.7-2.1c2.3,0.4,4.7,0.7,7,1.1
		c0.7,0.1,1-0.2,1.4-0.7c1.5-2.1,3-4.2,4.6-6.2c4.9-6.1,11.2-8.7,18.9-7.6c12.1,1.7,24.3,3.5,36.4,5.1c8.7,1.2,14.6,5.6,17.6,13.9
		c0.7,2,1.5,4,2.2,6c0.2,0.7,0.5,1,1.3,1.1c2.9,0.4,5.8,0.8,8.7,1.2c4.4,0.6,7.1,4.1,6.6,8.5c0,0.1,0,0.2,0,0.3
		c-0.5,5.4-2.4,6.8-7.7,6.1C290.7,243.6,290.5,243.6,290.7,244z M269.7,280.3c3.1,0,5.4-1,6.7-3.3c2.8-5.3,5.7-10.5,7.4-16.3
		c1.1-4,1.5-8.1,2.2-12.1c0.6-4-0.8-6.1-4.8-6.8c-6.8-1.3-13.5-2.7-20.3-3.9c-7.2-1.3-14.3-3.1-21.5-3.9c-5.5-0.6-11.1-1.1-16.7-1.7
		c-8.2-0.8-16.3-1.6-24.5-2.3c-2.1-0.2-4.2,1.4-4.8,3.5c-0.2,0.8-0.4,1.7-0.5,2.6c-0.6,4.6-1.4,9.2-1.2,13.9
		c0.2,4.9,1.3,9.6,2.2,14.4c0.7,3.6,2.9,5.8,6.5,6.3c11.3,1.6,22.5,3.2,33.8,4.8c8.5,1.2,17,2.5,25.6,3.7
		C263.1,279.4,266.6,279.9,269.7,280.3z M280.7,236.7c-2-5.5-3.8-10.5-5.7-15.4c-2-5.2-5.8-8.6-11.3-9.4c-13-2-26-3.8-39-5.6
		c-5-0.7-9.3,1-12.7,4.7c-1.9,2.1-3.5,4.6-5.2,6.9c-1.8,2.4-3.5,4.7-5.5,7.5C228.3,226.7,254.5,230.5,280.7,236.7z M190.6,269.4
		c-0.4,2.4-0.7,4.4-1,6.4c-0.3,2.5,0.4,3.4,2.9,3.8c2.5,0.3,5.1,0.7,7.6,1c3.1,0.5,3.8-0.1,4.3-3.1c0.2-1.3-0.1-1.6-1.3-1.7
		C198.2,275.4,193.6,274.4,190.6,269.4z M198.6,220.5c-2.6-0.4-4.9-0.8-7.2-1c-2-0.2-3.8,2.3-3.1,4.2c0.1,0.4,0.5,0.4,0.8,0.4
		c1.9,0.2,3.7,0.5,5.6,0.8c0.5,0.1,0.8,0.1,1.1-0.3C196.6,223.2,197.6,222,198.6,220.5z M284.5,232.7c0.6,1.6,1.1,2.9,1.5,4.2
		c0.2,0.8,0.6,1.1,1.4,1.2c1.7,0.2,3.4,0.5,5.1,0.7c0.3,0,0.7,0.2,1-0.1c1.1-1.2,0.3-4.4-1.3-4.8
		C289.8,233.4,287.2,233.1,284.5,232.7z"/>
	<path class="st5" d="M326.7,261.1c4.1,0,8.2,0,12.2,0c4.2,0,7.4,3.2,7.5,7.4c0,3.3,0,6.6,0,9.9c0,4.1-3.1,7.4-7.2,7.4
		c-8.4,0.1-16.8,0.1-25.2,0c-4.1-0.1-7.1-3.4-7.2-7.6c0-3.2,0-6.4,0-9.6c0-4.3,3.2-7.5,7.5-7.6c0.1,0,0.2,0,0.3,0
		C318.7,261.1,322.7,261.1,326.7,261.1z M326.6,275.9c-4.5,0-9,0-13.5,0c-0.4,0-1.1-0.3-1.3,0.4c-0.9,2.5,0.5,4.5,3.1,4.5
		c7.6,0,15.2,0,22.9,0c2.9,0,3.5-0.7,3.6-3.5c0-1.3-0.4-1.4-1.5-1.4C335.5,276,331.1,275.9,326.6,275.9z M326.6,271
		c4.5,0,9,0,13.5,0c0.4,0,1,0.3,1.3-0.3c1-1.8-0.4-4.5-2.4-4.5c-8.3,0-16.5,0-24.8,0c-1,0-1.7,0.5-2.1,1.3c-0.5,1-0.5,2.2-0.1,3.2
		c0.2,0.7,1.4,0.3,2.1,0.3C318.3,271,322.5,271,326.6,271z"/>
	<path class="st5" d="M298.2,285c-1.2-1.6-2.1-2.9-3.1-4.1c-1.1-1.3-1.3-2.6-0.7-4.2c0.4-0.9,1.2-2.4,0.7-2.8
		c-0.8-0.6-1.8,0.6-2.7,1c-1.1,0.5-2.1,0.7-3.1,0c-0.8-0.6-1-1.4-0.9-2.3c0.1-0.9,0.7-1.5,1.4-1.9c2.9-1.6,5.8-3.1,8.7-4.7
		c1-0.6,2-0.6,2.9,0.1c1,0.8,1.2,1.8,0.8,3c-0.9,2.6-1.7,5.3-2.6,7.9c-0.3,0.8-0.2,1.4,0.3,2.1c1.9,2.4,3.7,4.9,5.5,7.4
		c0.7,0.9,1.1,1.9,0.5,3c-0.6,1.2-1.7,1.4-2.9,1.3c-4.2-0.6-8.4-1.1-12.6-1.7c-1-0.1-1.4,0.1-1.3,1.2c0.1,1.9,0,3.8-0.1,5.6
		c-0.1,2.1-1.5,3.2-3.5,2.5c-4.4-1.4-8.8-2.8-13.2-4.3c-1.7-0.5-2.3-1.8-1.9-3.3c0.4-1.4,1.8-2,3.4-1.5c2.9,0.9,5.7,1.9,8.6,2.8
		c1.6,0.5,1.6,0.5,1.7-1.3c0-1.5,0-2.9,0.1-4.4c0-2.2,1.1-3.1,3.3-2.8C290.9,284.1,294.4,284.5,298.2,285z"/>
	<path class="st5" d="M190.6,269.4c3,5,7.6,6,12.5,6.4c1.2,0.1,1.5,0.4,1.3,1.7c-0.5,3-1.2,3.6-4.3,3.1c-2.5-0.4-5.1-0.7-7.6-1
		c-2.5-0.3-3.3-1.3-2.9-3.8C189.9,273.8,190.2,271.8,190.6,269.4z"/>
	<path class="st5" d="M198.6,220.5c-1.1,1.5-2,2.7-2.9,4c-0.3,0.4-0.6,0.4-1.1,0.3c-1.9-0.3-3.7-0.5-5.6-0.8c-0.3,0-0.6,0-0.8-0.4
		c-0.7-1.9,1.1-4.5,3.1-4.2C193.8,219.7,196.1,220.1,198.6,220.5z"/>
	<path class="st5" d="M284.5,232.7c2.7,0.4,5.2,0.7,7.7,1.2c1.6,0.3,2.4,3.5,1.3,4.8c-0.3,0.3-0.7,0.2-1,0.1
		c-1.7-0.2-3.4-0.5-5.1-0.7c-0.7-0.1-1.2-0.4-1.4-1.2C285.6,235.6,285.1,234.3,284.5,232.7z"/>
	<path class="st5" d="M290.7,244c-0.2-0.4,0-0.5,0.3-0.3C290.9,243.8,290.8,243.9,290.7,244z"/>
	<path class="st5" d="M269.5,275.3c-4.8-0.7-9.7-1.4-14.6-2.1c-8.6-1.2-17.1-2.5-25.7-3.7c-9.3-1.3-18.6-2.7-27.9-4
		c-1.7-0.3-2.6-1.4-2.3-2.9c0.3-1.4,1.5-2.2,3.2-1.9c15,2.1,30,4.2,44.9,6.4c7.4,1.1,14.8,2.1,22.2,3.2c1.4,0.2,2.7,0.5,3.1,2.1
		C272.7,274.1,271.4,275.4,269.5,275.3z"/>
	<path class="st5" d="M269.7,246.2c2.4,0,5.2,0.4,8,1c3.1,0.6,4.6,3.5,3.5,6.5c-0.7,2-1.3,3.9-2,5.9c-1.6,4.5-6.2,7.1-10.9,6.4
		c-3.9-0.6-7.8-1.2-11.8-1.7c-3-0.4-5.4-2.3-6.1-5c-0.7-2.8,0.2-5.4,2.7-7.3C258.3,247.9,263,246.3,269.7,246.2z M276.5,252.1
		c-0.6-0.1-1.2-0.3-1.7-0.4c-0.6-0.1-1.1-0.1-1.7-0.2c-6.2-1-11.9,0.3-16.8,4.3c-0.6,0.5-1.4,1.1-1.1,2.1c0.3,1,1,1.4,2,1.5
		c4,0.6,8,1.2,12.1,1.8c2.3,0.3,4.3-0.8,5.1-2.8C275.1,256.3,275.8,254.2,276.5,252.1z"/>
	<path class="st5" d="M196.1,243.9c-0.1-0.9-0.2-1.8-0.2-2.7c-0.1-2.8,2-5.1,4.7-5c9.6,0.5,17.8,3.6,23.3,12.1
		c1.3,2.1,1.6,4.3,0.4,6.5c-1.2,2.3-3.2,3.7-5.9,3.7c-3.9-0.1-7.6-1-11.5-1.4c-1.2-0.1-2.5-0.3-3.7-0.7c-4.3-1.2-6.7-4.6-7-9.5
		C196.1,246,196.2,245,196.1,243.9C196.2,243.9,196.2,243.9,196.1,243.9z M202.1,241.4c-1.1-0.3-1.2,0.1-1.2,0.9
		c0.1,1.6,0.2,3.2,0.3,4.9c0.1,2.6,1.8,4.4,4.3,4.8c3.9,0.6,7.9,1.1,11.8,1.6c1,0.1,1.9,0.2,2.5-0.8c0.6-1,0-1.8-0.6-2.5
		C215,244.3,208.9,241.9,202.1,241.4z"/>
	<path class="st5" d="M246.5,250.5c-5.5-0.8-10.9-1.5-16.4-2.3c-1.7-0.3-2.6-1.3-2.4-2.9c0.2-1.5,1.3-2.3,3.1-2.1
		c5.5,0.7,10.9,1.5,16.4,2.3c1.8,0.3,2.7,1.4,2.5,2.8C249.6,249.9,248.4,250.6,246.5,250.5z"/>
</g>
<g>
	<g>
		<path class="st6" d="M132.2,327.1c0-5.1,2.7-7.8,7.8-7.8h6.1c5.1,0,7.8,2.7,7.8,7.8v27.8c0,5.1-2.7,7.8-7.8,7.8H140
			c-5.1,0-7.8-2.7-7.8-7.8V327.1z M144.8,355.7c1.4,0,2.2-0.7,2.2-2.2v-25c0-1.4-0.8-2.2-2.2-2.2h-3.1c-1.4,0-2.2,0.8-2.2,2.2v25
			c0,1.5,0.8,2.2,2.2,2.2H144.8z"/>
		<path class="st6" d="M181.1,339.9c0,2-1.5,3.5-3.4,3.8v0.1c2,0.3,3.4,1.8,3.4,3.8v7.2c0,5.1-2.8,7.8-7.9,7.8h-13
			c-0.5,0-0.9-0.3-0.9-0.9v-36.2c0-0.6,0.3-0.9,0.9-0.9h13c5.1,0,7.9,2.7,7.9,7.8V339.9z M174.2,333.7c0-1.4-0.7-2.2-2.2-2.2h-6v8.6
			h6c1.4,0,2.2-0.8,2.2-2.1V333.7z M174.2,349.5c0-1.4-0.7-2.2-2.2-2.2h-6v8.5h6c1.4,0,2.2-0.7,2.2-2.2V349.5z"/>
		<path class="st6" d="M200.4,324.7c5.1,0,7.8,2.7,7.8,7.8v3.6c0,0.5-0.3,0.9-0.9,0.9h-5.5c-0.5,0-0.9-0.3-0.9-0.9v-2.3
			c0-1.4-0.7-2.2-2.2-2.2h-3c-1.4,0-2.2,0.8-2.2,2.2v4.6l13.1,4.2c0.9,0.3,1.4,1,1.4,2v10.2c0,5.1-2.7,7.8-7.8,7.8h-6.1
			c-5,0-7.8-2.7-7.8-7.8v-3.5c0-0.6,0.3-0.9,0.9-0.9h5.5c0.6,0,0.9,0.3,0.9,0.9v2.3c0,1.5,0.8,2.2,2.2,2.2h2.9
			c1.4,0,2.2-0.7,2.2-2.2v-5.5l-13-4.2c-1-0.3-1.5-1-1.5-2v-9.4c0-5.1,2.8-7.8,7.8-7.8H200.4z"/>
		<path class="st6" d="M231.7,324.7c0.6,0,0.9,0.3,0.9,0.9v5.4c0,0.5-0.3,0.9-0.9,0.9h-6.3v29.9c0,0.6-0.3,0.9-0.9,0.9h-5.6
			c-0.5,0-0.9-0.3-0.9-0.9v-29.9h-6.3c-0.5,0-0.9-0.3-0.9-0.9v-5.4c0-0.5,0.3-0.9,0.9-0.9H231.7z"/>
		<path class="st6" d="M252.9,362.7c-0.5,0-0.8-0.3-0.9-0.8l-1.7-6.8h-10.2l-1.7,6.8c-0.1,0.5-0.4,0.8-0.9,0.8h-5.3
			c-0.6,0-0.9-0.3-0.7-0.9l9-36.3c0.1-0.5,0.4-0.8,0.9-0.8h7.5c0.5,0,0.8,0.2,0.9,0.8l9,36.3c0.2,0.6-0.1,0.9-0.8,0.9H252.9z
			 M245.2,334.1l-3.4,14.7h6.8L245.2,334.1z"/>
		<path class="st6" d="M283.4,338.4c0,0.5-0.3,0.9-0.9,0.9h-5.1c-0.6,0-0.9-0.3-0.9-0.9V334c0-1.4-0.8-2.2-2.2-2.2h-3.5
			c-1.5,0-2.2,0.8-2.2,2.2v19.7c0,1.5,0.8,2.2,2.2,2.2h3.5c1.4,0,2.2-0.7,2.2-2.2V349c0-0.5,0.3-0.9,0.9-0.9h5.1
			c0.5,0,0.9,0.3,0.9,0.9v5.9c0,5.1-2.8,7.8-7.8,7.8h-6.1c-5.1,0-7.9-2.7-7.9-7.8v-22.3c0-5.1,2.8-7.8,7.9-7.8h6.1
			c5,0,7.8,2.7,7.8,7.8V338.4z"/>
		<path class="st6" d="M308.9,324.7c0.6,0,1.1,0.5,1.1,1.1v29.1c0,5.1-2.7,7.8-7.8,7.8h-6.1c-5.1,0-7.8-2.7-7.8-7.8v-29.1
			c0-0.6,0.5-1.1,1.1-1.1h5.2c0.6,0,1.1,0.5,1.1,1.1v27.5c0,1.5,0.8,2.2,2.2,2.2h2.8c1.4,0,2.2-0.7,2.2-2.2v-27.5
			c0-0.6,0.5-1.1,1.1-1.1H308.9z"/>
		<path class="st6" d="M322.8,355.5h10.7c0.6,0,0.9,0.3,0.9,0.9v5.4c0,0.6-0.3,0.9-0.9,0.9h-17.2c-0.5,0-0.9-0.3-0.9-0.9v-36.2
			c0-0.5,0.3-0.9,0.9-0.9h5.6c0.6,0,0.9,0.3,0.9,0.9V355.5z"/>
		<path class="st6" d="M338.1,332.6c0-5.1,2.7-7.8,7.8-7.8h6.1c5.1,0,7.8,2.7,7.8,7.8v22.3c0,5.1-2.7,7.8-7.8,7.8H346
			c-5.1,0-7.8-2.7-7.8-7.8V332.6z M350.8,355.7c1.4,0,2.2-0.7,2.2-2.2v-19.6c0-1.4-0.8-2.2-2.2-2.2h-3.5c-1.4,0-2.2,0.8-2.2,2.2
			v19.6c0,1.5,0.8,2.2,2.2,2.2H350.8z"/>
	</g>
	<rect x="251.3" y="315" transform="matrix(0.8223 0.5691 -0.5691 0.8223 225.9048 -87.4024)" class="st6" width="3.1" height="6"/>
</g>
</svg>
