<?xml version="1.0" encoding="utf-8"?>
<!-- Generator: Adobe Illustrator 24.1.1, SVG Export Plug-In . SVG Version: 6.00 Build 0)  -->
<svg version="1.1" id="Capa_1" xmlns="http://www.w3.org/2000/svg" xmlns:xlink="http://www.w3.org/1999/xlink" x="0px" y="0px"
	 viewBox="0 0 478.1 419.7" style="enable-background:new 0 0 478.1 419.7;" xml:space="preserve">
<style type="text/css">
	.st0{fill:#6D2915;stroke:#56540C;stroke-miterlimit:10;}
	.st1{fill:#AA4B29;}
	.st2{fill:#F1F1F1;}
	.st3{clip-path:url(#SVGID_2_);}
	.st4{fill:#D8D8D8;}
	.st5{enable-background:new    ;}
	.st6{fill:#303030;}
</style>
<g id="somnra">
	<path class="st0" d="M248.1,11.3l208.1,372.7c5.7,10.2,2,23-8.1,28.7c-3.1,1.8-6.7,2.7-10.3,2.7H21.6c-11.7,0-21.1-9.5-21.1-21.1
		c0-3.6,0.9-7.1,2.7-10.3L211.3,11.3C217,1.2,229.8-2.5,240,3.2C243.4,5.1,246.2,7.9,248.1,11.3z"/>
	<path class="st0" d="M238.2,80.8l157.3,281.7c2.6,4.7,0.9,10.7-3.8,13.3c-1.5,0.8-3.1,1.2-4.8,1.2H72.4c-5.4,0-9.8-4.4-9.8-9.8
		c0-1.7,0.4-3.3,1.2-4.8L221.2,80.8c2.6-4.7,8.6-6.4,13.3-3.8C236,77.9,237.3,79.2,238.2,80.8z"/>
</g>
<g id="s">
	<path class="st1" d="M267.4,11.8l208.1,372.7c5.7,10.2,2,23-8.1,28.7c-3.1,1.8-6.7,2.7-10.3,2.7H40.9c-11.7,0-21.1-9.5-21.1-21.1
		c0-3.6,0.9-7.1,2.7-10.3L230.5,11.8c5.7-10.2,18.5-13.8,28.7-8.1C262.7,5.6,265.5,8.4,267.4,11.8z"/>
	<path class="st2" d="M257.5,81.2l157.3,281.7c2.6,4.7,0.9,10.7-3.8,13.3c-1.5,0.8-3.1,1.2-4.8,1.2H91.7c-5.4,0-9.8-4.4-9.8-9.8
		c0-1.7,0.4-3.3,1.2-4.8L240.4,81.2c2.6-4.7,8.6-6.4,13.3-3.8C255.3,78.3,256.6,79.6,257.5,81.2z"/>
	<g>
		<defs>
			<path id="SVGID_1_" d="M257.1,80.7l157.3,281.7c2.6,4.7,0.9,10.7-3.8,13.3c-1.5,0.8-3.1,1.2-4.8,1.2H91.4c-5.4,0-9.8-4.4-9.8-9.8
				c0-1.7,0.4-3.3,1.2-4.8L240.1,80.7c2.6-4.7,8.6-6.4,13.3-3.8C255,77.8,256.3,79.1,257.1,80.7z"/>
		</defs>
		<clipPath id="SVGID_2_">
			<use xlink:href="#SVGID_1_"  style="overflow:visible;"/>
		</clipPath>
		<g class="st3">
			
				<rect x="-18.9" y="202.4" transform="matrix(0.4423 -0.8969 0.8969 0.4423 -106.3207 264.69)" class="st4" width="357" height="30.9"/>
		</g>
	</g>
</g>
<g class="st5">
	<path class="st6" d="M197,316.1c0-5.1,2.7-7.8,7.8-7.8h6c5.1,0,7.8,2.7,7.8,7.8v27.6c0,5.1-2.7,7.8-7.8,7.8h-6
		c-5.1,0-7.8-2.7-7.8-7.8V316.1z M209.4,344.5c1.4,0,2.2-0.7,2.2-2.2v-24.9c0-1.4-0.8-2.2-2.2-2.2h-3.1c-1.4,0-2.2,0.8-2.2,2.2v24.9
		c0,1.5,0.8,2.2,2.2,2.2H209.4z"/>
	<path class="st6" d="M243.6,313.7c0.6,0,0.9,0.3,0.9,0.9v5.4c0,0.5-0.3,0.9-0.9,0.9h-6.3v29.8c0,0.6-0.3,0.9-0.9,0.9h-5.6
		c-0.5,0-0.9-0.3-0.9-0.9v-29.8h-6.3c-0.5,0-0.9-0.3-0.9-0.9v-5.4c0-0.5,0.3-0.9,0.9-0.9H243.6z"/>
</g>
<g class="st5">
	<path class="st6" d="M270.4,332.3c0,3.1-1,5.3-3,6.6l2.8,11.6c0.2,0.6-0.2,1-0.8,1h-5.3c-0.5,0-0.8-0.3-0.9-0.8l-2.6-10.6h-4.8
		v10.5c0,0.5-0.3,0.9-0.9,0.9h-5.3c-0.5,0-0.9-0.3-0.9-0.9v-36.1c0-0.5,0.3-0.9,0.9-0.9h13c5.1,0,7.8,2.7,7.8,7.8V332.3z
		 M261.2,333.1c1.4,0,2.2-0.8,2.2-2.2v-8.2c0-1.4-0.8-2.2-2.2-2.2h-5.4v12.5H261.2z"/>
</g>
<g class="st5">
	<path class="st6" d="M295,351.5c-0.5,0-0.8-0.3-0.9-0.8l-1.7-6.8h-10.2l-1.7,6.8c-0.1,0.5-0.4,0.8-0.9,0.8h-5.3
		c-0.6,0-0.9-0.3-0.7-0.9l9-36.1c0.1-0.5,0.4-0.8,0.9-0.8h7.5c0.5,0,0.8,0.2,0.9,0.8l9,36.1c0.2,0.6-0.1,0.9-0.8,0.9H295z
		 M287.3,323l-3.4,14.7h6.8L287.3,323z"/>
</g>
<path class="st6" d="M248.8,143.8c6.5,0,15.9,1.1,16.2,8.5c0,2.9-0.4,5.6-0.7,8.5c-2,12.3-7.6,42.6-10.8,66.9h-9.2
	c-2.7-22.4-8.3-53-10.6-66.4c-0.7-3-1.1-6-1.4-9C232.2,145.6,241.9,143.8,248.8,143.8z M249,274.2c-9,0-15.7-6.5-15.7-16.2
	c0.2-8.7,7.5-15.5,16.2-15.3c8.7,0.2,15.5,7.5,15.3,16.2C264.5,267.4,257.5,274.2,249,274.2z"/>
</svg>
