<svg id="Capa_1" data-name="Capa 1" xmlns="http://www.w3.org/2000/svg" xmlns:xlink="http://www.w3.org/1999/xlink" viewBox="0 0 477.68 415.38"><defs><style>.cls-1{fill:none;}.cls-2{fill:#6d2915;}.cls-3{fill:#aa4b29;}.cls-4{fill:#f1f1f1;}.cls-5{clip-path:url(#clip-path);}.cls-6{fill:#d8d8d8;}.cls-7,.cls-8{fill:#1e1e1e;}.cls-8{font-size:60px;font-family:Norwester-Regular, Norwester;}.cls-9{letter-spacing:-0.03em;}</style><clipPath id="clip-path" transform="translate(-0.5 -0.52)"><path class="cls-1" d="M257.1,80.7,414.4,362.4a9.82,9.82,0,0,1-3.8,13.3,10.05,10.05,0,0,1-4.8,1.2H91.4a9.82,9.82,0,0,1-9.8-9.8,10.05,10.05,0,0,1,1.2-4.8L240.1,80.7a9.82,9.82,0,0,1,13.3-3.8A9,9,0,0,1,257.1,80.7Z"/></clipPath></defs><g id="somnra"><path class="cls-2" d="M248.1,11.3,456.2,384a21.12,21.12,0,0,1-8.1,28.7,20.58,20.58,0,0,1-10.3,2.7H21.6A21.1,21.1,0,0,1,.5,394.3,20.86,20.86,0,0,1,3.2,384L211.3,11.3a21.09,21.09,0,0,1,36.8,0Z" transform="translate(-0.5 -0.52)"/><path class="cls-2" d="M238.2,80.8,395.5,362.5a9.82,9.82,0,0,1-3.8,13.3,10.05,10.05,0,0,1-4.8,1.2H72.4a9.82,9.82,0,0,1-9.8-9.8,10.05,10.05,0,0,1,1.2-4.8L221.2,80.8A9.82,9.82,0,0,1,234.5,77,10.38,10.38,0,0,1,238.2,80.8Z" transform="translate(-0.5 -0.52)"/></g><g id="s"><path class="cls-3" d="M267.4,11.8,475.5,384.5a21.12,21.12,0,0,1-8.1,28.7,20.58,20.58,0,0,1-10.3,2.7H40.9a21.1,21.1,0,0,1-21.1-21.1,20.86,20.86,0,0,1,2.7-10.3l208-372.7a21,21,0,0,1,28.7-8.1A20.62,20.62,0,0,1,267.4,11.8Z" transform="translate(-0.5 -0.52)"/><path class="cls-4" d="M257.5,81.2,414.8,362.9a9.82,9.82,0,0,1-3.8,13.3,10.05,10.05,0,0,1-4.8,1.2H91.7a9.82,9.82,0,0,1-9.8-9.8,10.05,10.05,0,0,1,1.2-4.8L240.4,81.2a9.78,9.78,0,0,1,17.1,0Z" transform="translate(-0.5 -0.52)"/><g class="cls-5"><rect class="cls-6" x="-18.85" y="202.45" width="357.01" height="30.9" transform="translate(-106.88 264.2) rotate(-63.75)"/></g></g><path class="cls-7" d="M250.5,146.43c6.93,0,17,1.2,17.2,9.09,0,3.1-.48,6-.71,9.08-2.16,13.14-8.13,45.4-11.47,71.2h-9.8c-2.87-23.89-8.84-56.39-11.23-70.73a65.59,65.59,0,0,1-1.44-9.55C232.82,148.35,243.09,146.43,250.5,146.43Zm.24,138.84c-9.56,0-16.73-6.93-16.73-17.21a16.73,16.73,0,1,1,16.73,17.21Z" transform="translate(-0.5 -0.52)"/><text class="cls-8" transform="translate(183.89 362.24)"><tspan class="cls-9">O</tspan><tspan x="28.2" y="0">T</tspan><tspan class="cls-9" x="55.8" y="0">R</tspan><tspan x="84.66" y="0">A</tspan></text></svg>