<?xml version="1.0" encoding="utf-8"?>
<!-- Generator: Adobe Illustrator 24.1.1, SVG Export Plug-In . SVG Version: 6.00 Build 0)  -->
<svg version="1.1" id="Capa_1" xmlns="http://www.w3.org/2000/svg" xmlns:xlink="http://www.w3.org/1999/xlink" x="0px" y="0px"
	 viewBox="0 0 477.6 419.2" style="enable-background:new 0 0 477.6 419.2;" xml:space="preserve">
<style type="text/css">
	.st0{fill:#235A7C;}
	.st1{fill:#3178AD;}
	.st2{fill:#F1F1F1;}
	.st3{clip-path:url(#SVGID_2_);}
	.st4{fill:#D8D8D8;}
	.st5{enable-background:new    ;}
	.st6{fill:#303030;}
</style>
<g id="somnra">
	<path class="st0" d="M247.6,10.8l208.1,372.7c5.7,10.2,2,23-8.1,28.7c-3.1,1.8-6.7,2.7-10.3,2.7H21.1C9.5,414.9,0,405.5,0,393.8
		c0-3.6,0.9-7.1,2.7-10.3L210.8,10.8c5.7-10.2,18.5-13.8,28.7-8.1C242.9,4.6,245.7,7.4,247.6,10.8z"/>
	<path class="st0" d="M237.7,80.3L395,362c2.6,4.7,0.9,10.7-3.8,13.3c-1.5,0.8-3.1,1.2-4.8,1.2H71.9c-5.4,0-9.8-4.4-9.8-9.8
		c0-1.7,0.4-3.3,1.2-4.8L220.7,80.3c2.6-4.7,8.6-6.4,13.3-3.8C235.5,77.4,236.8,78.7,237.7,80.3z"/>
</g>
<g id="s">
	<path class="st1" d="M266.9,11.3L474.9,384c5.7,10.2,2,23-8.1,28.7c-3.1,1.8-6.7,2.7-10.3,2.7H40.4c-11.7,0-21.1-9.5-21.1-21.1
		c0-3.6,0.9-7.1,2.7-10.3L230,11.3c5.7-10.2,18.5-13.8,28.7-8.1C262.2,5.1,265,7.9,266.9,11.3z"/>
	<path class="st2" d="M257,80.7l157.3,281.7c2.6,4.7,0.9,10.7-3.8,13.3c-1.5,0.8-3.1,1.2-4.8,1.2H91.2c-5.4,0-9.8-4.4-9.8-9.8
		c0-1.7,0.4-3.3,1.2-4.8L239.9,80.7c2.6-4.7,8.6-6.4,13.3-3.8C254.8,77.8,256.1,79.1,257,80.7z"/>
	<g>
		<defs>
			<path id="SVGID_1_" d="M256.6,80.2l157.3,281.7c2.6,4.7,0.9,10.7-3.8,13.3c-1.5,0.8-3.1,1.2-4.8,1.2H90.9c-5.4,0-9.8-4.4-9.8-9.8
				c0-1.7,0.4-3.3,1.2-4.8L239.6,80.2c2.6-4.7,8.6-6.4,13.3-3.8C254.5,77.3,255.8,78.6,256.6,80.2z"/>
		</defs>
		<clipPath id="SVGID_2_">
			<use xlink:href="#SVGID_1_"  style="overflow:visible;"/>
		</clipPath>
		<g class="st3">
			
				<rect x="-19.4" y="201.9" transform="matrix(0.4423 -0.8969 0.8969 0.4423 -106.1511 263.9627)" class="st4" width="357" height="30.9"/>
		</g>
	</g>
</g>
<g class="st5">
	<path class="st6" d="M202.5,328.8c0,3.6-1.4,6-3.9,7.1l3.7,14.1c0.2,0.6-0.2,1-0.8,1h-5.6c-0.5,0-0.8-0.3-0.9-0.8l-3.6-13.7h-3.7
		v13.6c0,0.5-0.3,0.9-0.9,0.9h-5.6c-0.5,0-0.9-0.3-0.9-0.9v-41.5c0-0.5,0.3-0.9,0.9-0.9h13.6c5.1,0,7.8,2.7,7.8,7.8V328.8z
		 M193,329.4c1.4,0,2.2-0.8,2.2-2.2v-10.2c0-1.4-0.8-2.2-2.2-2.2h-5.3v14.5H193z"/>
</g>
<g class="st5">
	<path class="st6" d="M228.2,351c-0.5,0-0.8-0.3-0.9-0.8l-1.7-6.8h-10.2l-1.7,6.8c-0.1,0.5-0.4,0.8-0.9,0.8h-5.3
		c-0.6,0-0.9-0.3-0.7-0.9l9-36.1c0.1-0.5,0.4-0.8,0.9-0.8h7.5c0.5,0,0.8,0.2,0.9,0.8l9,36.1c0.2,0.6-0.1,0.9-0.8,0.9H228.2z
		 M220.5,322.5l-3.4,14.7h6.8L220.5,322.5z"/>
</g>
<g class="st5">
	<path class="st6" d="M237.4,314.1c0-0.5,0.3-0.9,0.9-0.9h13c5.1,0,7.8,2.8,7.8,7.8v22.2c0,5.1-2.7,7.8-7.8,7.8h-13
		c-0.6,0-0.9-0.3-0.9-0.9V314.1z M249.8,343.9c1.4,0,2.2-0.7,2.2-2.2v-19.2c0-1.5-0.8-2.2-2.2-2.2h-5v23.5H249.8z"/>
	<path class="st6" d="M283.7,351c-0.5,0-0.8-0.3-0.9-0.8l-1.7-6.8h-10.2l-1.7,6.8c-0.1,0.5-0.4,0.8-0.9,0.8h-5.3
		c-0.6,0-0.9-0.3-0.7-0.9l9-36.1c0.1-0.5,0.4-0.8,0.9-0.8h7.5c0.5,0,0.8,0.2,0.9,0.8l9,36.1c0.2,0.6-0.1,0.9-0.8,0.9H283.7z
		 M276,322.5l-3.4,14.7h6.8L276,322.5z"/>
</g>
<g class="st5">
	<path class="st6" d="M315.6,331.8c0,3.1-1,5.3-3,6.6l2.8,11.6c0.2,0.6-0.2,1-0.8,1h-5.3c-0.5,0-0.8-0.3-0.9-0.8l-2.6-10.6H301v10.5
		c0,0.5-0.3,0.9-0.9,0.9h-5.3c-0.5,0-0.9-0.3-0.9-0.9v-36.1c0-0.5,0.3-0.9,0.9-0.9h13c5.1,0,7.8,2.7,7.8,7.8V331.8z M306.4,332.6
		c1.4,0,2.2-0.8,2.2-2.2v-8.2c0-1.4-0.8-2.2-2.2-2.2H301v12.5H306.4z"/>
</g>
<path class="st6" d="M227.2,197.2c9.4,0,18.8,0.2,28.1,0c4.5-0.2,6.5,0.8,6.3,5.9c-0.4,9.4-0.2,18.8,0,28.1c0.2,4.3-1.2,5.9-5.5,5.7
	c-6.9-0.2-13.6,0.2-20.6-0.2c-5.1-0.4-7.8,1.2-9.4,6.5c-2.4,8.8-5.9,17.3-8.4,26.1c-1.6,5.7-4.3,8.1-10,7.1c-1.3-0.2-2.6-0.2-3.9,0
	c-8.4,0-8.4,0-5.7-8.1s5.5-16.9,8.6-25.3c1.6-4.3,1.2-6.3-4.3-6.3c-15.7-0.2-16.9-1.6-16.9-17.1c0-22.4,0-22.4,22.4-22.4
	L227.2,197.2z"/>
<path class="st6" d="M310.7,217c0,14.1-4.9,27.7-13.9,38.5c-1.6,1.8-3,5.5-6.3,2c-2.5-2.7-6.1-4.3-2.2-9.2
	c12.8-16.7,15.1-35.1,5.7-54.2c-1.2-2.8-2.9-5.4-5.1-7.5c-4.5-4.3-1.8-6.7,1.4-9.8c4.5-4.5,5.9,1,7.3,2.9
	C306.4,190.1,311,203.4,310.7,217z"/>
<path class="st6" d="M288.7,216.2c-0.4,10-2.9,17.5-8,24.3c-1.2,1.6-2.4,4.9-5.1,1.8c-1.8-2.2-7.1-3.5-4.1-7.5
	c8.2-11.8,8.4-23.2-0.2-35.3c-2.9-3.9,2.4-5.3,4.3-7.5c2.4-2.9,3.9,0.2,5.1,1.8C285.9,200.2,288.7,208,288.7,216.2z"/>
</svg>
