<?xml version="1.0" encoding="utf-8"?>
<!-- Generator: Adobe Illustrator 24.1.1, SVG Export Plug-In . SVG Version: 6.00 Build 0)  -->
<svg version="1.1" id="Capa_1" xmlns="http://www.w3.org/2000/svg" xmlns:xlink="http://www.w3.org/1999/xlink" x="0px" y="0px"
	 viewBox="0 0 477.6 425.2" style="enable-background:new 0 0 477.6 425.2;" xml:space="preserve">
<style type="text/css">
	.st0{fill:#551F75;}
	.st1{fill:#8223AF;}
	.st2{fill:#F1F1F1;}
	.st3{clip-path:url(#SVGID_2_);}
	.st4{fill:#D8D8D8;}
	.st5{enable-background:new    ;}
	.st6{fill:#303030;}
	.st7{fill:#F3F3F3;}
	.st8{fill:#FFFFFF;}
</style>
<g id="somnra">
	<path class="st0" d="M247.6,10.8l208.1,372.7c5.7,10.2,2,23-8.1,28.7c-3.1,1.8-6.7,2.7-10.3,2.7H21.1C9.5,414.9,0,405.5,0,393.8
		c0-3.6,0.9-7.1,2.7-10.3L210.8,10.8c5.7-10.2,18.5-13.8,28.7-8.1C242.9,4.6,245.7,7.4,247.6,10.8z"/>
	<path class="st0" d="M237.7,80.3L395,362c2.6,4.7,0.9,10.7-3.8,13.3c-1.5,0.8-3.1,1.2-4.8,1.2H71.9c-5.4,0-9.8-4.4-9.8-9.8
		c0-1.7,0.4-3.3,1.2-4.8L220.7,80.3c2.6-4.7,8.6-6.4,13.3-3.8C235.5,77.4,236.8,78.7,237.7,80.3z"/>
</g>
<g id="s">
	<path class="st1" d="M266.9,11.3L474.9,384c5.7,10.2,2,23-8.1,28.7c-3.1,1.8-6.7,2.7-10.3,2.7H40.4c-11.7,0-21.1-9.5-21.1-21.1
		c0-3.6,0.9-7.1,2.7-10.3L230,11.3c5.7-10.2,18.5-13.8,28.7-8.1C262.2,5.1,265,7.9,266.9,11.3z"/>
	<path class="st2" d="M257,80.7l157.3,281.7c2.6,4.7,0.9,10.7-3.8,13.3c-1.5,0.8-3.1,1.2-4.8,1.2H91.2c-5.4,0-9.8-4.4-9.8-9.8
		c0-1.7,0.4-3.3,1.2-4.8L239.9,80.7c2.6-4.7,8.6-6.4,13.3-3.8C254.8,77.8,256.1,79.1,257,80.7z"/>
	<g>
		<defs>
			<path id="SVGID_1_" d="M256.6,80.2l157.3,281.7c2.6,4.7,0.9,10.7-3.8,13.3c-1.5,0.8-3.1,1.2-4.8,1.2H90.9c-5.4,0-9.8-4.4-9.8-9.8
				c0-1.7,0.4-3.3,1.2-4.8L239.6,80.2c2.6-4.7,8.6-6.4,13.3-3.8C254.5,77.3,255.8,78.6,256.6,80.2z"/>
		</defs>
		<clipPath id="SVGID_2_">
			<use xlink:href="#SVGID_1_"  style="overflow:visible;"/>
		</clipPath>
		<g class="st3">
			
				<rect x="-19.4" y="201.9" transform="matrix(0.4423 -0.8969 0.8969 0.4423 -106.1511 263.9627)" class="st4" width="357" height="30.9"/>
		</g>
	</g>
</g>
<g class="st5">
	<path class="st6" d="M145.2,337.1c0,3-1,5.1-2.9,6.3l2.7,11.2c0.2,0.6-0.2,0.9-0.7,0.9h-5.1c-0.5,0-0.8-0.3-0.9-0.7l-2.5-10.2h-4.6
		v10.1c0,0.5-0.3,0.8-0.8,0.8h-5.1c-0.5,0-0.8-0.3-0.8-0.8V320c0-0.5,0.3-0.8,0.8-0.8h12.5c4.9,0,7.5,2.6,7.5,7.5V337.1z
		 M136.4,337.9c1.4,0,2.1-0.7,2.1-2.1V328c0-1.4-0.7-2.1-2.1-2.1h-5.2v12H136.4z"/>
</g>
<g class="st5">
	<path class="st6" d="M171.1,325.2c0,0.5-0.2,0.9-0.8,0.9h-12.8v8h9.8c0.5,0,0.8,0.3,0.8,0.9v5.1c0,0.6-0.3,0.9-0.8,0.9h-9.8v7.7
		h12.8c0.6,0,0.8,0.3,0.8,0.8v5.2c0,0.5-0.2,0.8-0.8,0.8h-19.1c-0.5,0-0.8-0.3-0.8-0.8V320c0-0.5,0.3-0.8,0.8-0.8h19.1
		c0.6,0,0.8,0.3,0.8,0.8V325.2z"/>
</g>
<g class="st5">
	<path class="st6" d="M194.2,319.2c0.6,0,0.8,0.3,0.8,0.8v5.2c0,0.5-0.3,0.8-0.8,0.8h-6v28.7c0,0.6-0.3,0.8-0.8,0.8H182
		c-0.5,0-0.8-0.3-0.8-0.8v-28.7h-6c-0.5,0-0.8-0.3-0.8-0.8V320c0-0.5,0.3-0.8,0.8-0.8H194.2z"/>
	<path class="st6" d="M220,325.2c0,0.5-0.2,0.9-0.8,0.9h-12.8v8h9.8c0.5,0,0.8,0.3,0.8,0.9v5.1c0,0.6-0.3,0.9-0.8,0.9h-9.8v7.7h12.8
		c0.6,0,0.8,0.3,0.8,0.8v5.2c0,0.5-0.2,0.8-0.8,0.8H200c-0.5,0-0.8-0.3-0.8-0.8V320c0-0.5,0.3-0.8,0.8-0.8h19.1
		c0.6,0,0.8,0.3,0.8,0.8V325.2z"/>
	<path class="st6" d="M246.5,319.2c0.5,0,0.8,0.3,0.8,0.8v34.7c0,0.5-0.3,0.8-0.8,0.8h-4.1c-0.5,0-0.7-0.2-0.9-0.7l-9.8-19.9v19.7
		c0,0.5-0.3,0.8-0.8,0.8H226c-0.5,0-0.8-0.3-0.8-0.8V320c0-0.5,0.3-0.8,0.8-0.8h4.1c0.5,0,0.7,0.2,0.9,0.7l9.8,19.9V320
		c0-0.5,0.3-0.8,0.8-0.8H246.5z"/>
	<path class="st6" d="M273.4,332.3c0,0.5-0.3,0.8-0.8,0.8h-4.9c-0.6,0-0.8-0.3-0.8-0.8V328c0-1.4-0.7-2.1-2.1-2.1h-3.3
		c-1.4,0-2.1,0.7-2.1,2.1v18.9c0,1.4,0.7,2.1,2.1,2.1h3.3c1.4,0,2.1-0.7,2.1-2.1v-4.4c0-0.5,0.3-0.8,0.8-0.8h4.9
		c0.5,0,0.8,0.3,0.8,0.8v5.6c0,4.9-2.7,7.5-7.5,7.5h-5.8c-4.9,0-7.5-2.6-7.5-7.5v-21.4c0-4.9,2.7-7.5,7.5-7.5h5.8
		c4.8,0,7.5,2.6,7.5,7.5V332.3z"/>
	<path class="st6" d="M279.5,355.6c-0.6,0-0.8-0.3-0.8-0.8V320c0-0.5,0.3-0.8,0.8-0.8h5.4c0.5,0,0.8,0.3,0.8,0.8v34.7
		c0,0.5-0.3,0.8-0.8,0.8H279.5z"/>
	<path class="st6" d="M290.9,326.7c0-4.9,2.6-7.5,7.5-7.5h5.8c4.9,0,7.5,2.6,7.5,7.5v21.4c0,4.9-2.6,7.5-7.5,7.5h-5.8
		c-4.9,0-7.5-2.6-7.5-7.5V326.7z M303.1,348.9c1.4,0,2.1-0.7,2.1-2.1V328c0-1.4-0.7-2.1-2.1-2.1h-3.3c-1.4,0-2.1,0.7-2.1,2.1v18.8
		c0,1.4,0.7,2.1,2.1,2.1H303.1z"/>
	<path class="st6" d="M338.3,319.2c0.5,0,0.8,0.3,0.8,0.8v34.7c0,0.5-0.3,0.8-0.8,0.8h-4.1c-0.5,0-0.7-0.2-0.9-0.7l-9.8-19.9v19.7
		c0,0.5-0.3,0.8-0.8,0.8h-4.9c-0.5,0-0.8-0.3-0.8-0.8V320c0-0.5,0.3-0.8,0.8-0.8h4.1c0.5,0,0.7,0.2,0.9,0.7l9.8,19.9V320
		c0-0.5,0.3-0.8,0.8-0.8H338.3z"/>
</g>
<g class="st5">
	<path class="st6" d="M365.1,325.2c0,0.5-0.2,0.9-0.8,0.9h-12.8v8h9.8c0.5,0,0.8,0.3,0.8,0.9v5.1c0,0.6-0.3,0.9-0.8,0.9h-9.8v7.7
		h12.8c0.6,0,0.8,0.3,0.8,0.8v5.2c0,0.5-0.2,0.8-0.8,0.8h-19.1c-0.5,0-0.8-0.3-0.8-0.8V320c0-0.5,0.3-0.8,0.8-0.8h19.1
		c0.6,0,0.8,0.3,0.8,0.8V325.2z"/>
</g>
<g class="st5">
	<path class="st6" d="M382,319.2c4.9,0,7.5,2.6,7.5,7.5v3.4c0,0.5-0.3,0.8-0.8,0.8h-5.3c-0.5,0-0.8-0.3-0.8-0.8v-2.2
		c0-1.4-0.7-2.1-2.1-2.1h-2.9c-1.3,0-2.1,0.7-2.1,2.1v4.4l12.6,4.1c0.9,0.3,1.4,0.9,1.4,1.9v9.8c0,4.9-2.6,7.5-7.5,7.5h-5.8
		c-4.8,0-7.5-2.6-7.5-7.5v-3.4c0-0.6,0.3-0.8,0.8-0.8h5.3c0.6,0,0.8,0.3,0.8,0.8v2.2c0,1.4,0.8,2.1,2.1,2.1h2.8
		c1.4,0,2.1-0.7,2.1-2.1v-5.3l-12.5-4.1c-0.9-0.3-1.4-0.9-1.4-1.9v-9c0-4.9,2.7-7.5,7.5-7.5H382z"/>
</g>
<path class="st6" d="M202.1,195.2c-0.9,0-1.7,0.5-2.1,1.3l-4.9,12.4c-1.3,0.7-1.3,1.3-1.3,1.3c-0.9,1.7-1.3,3.6-1.3,5.5
	c0,3.4,1.3,4.1,1.3,4.1c-0.8,1.1-0.5,2.6,0.5,3.4c0,0,0,0,0,0l0,0v4.9c0,0.7,0.5,1.3,1.2,1.3c0,0,0,0,0.1,0h5.4
	c0.7,0,1.3-0.5,1.3-1.3c0,0,0,0,0-0.1l0,0v-5.5h27.6v5.5c0,0.7,0.5,1.3,1.2,1.3c0,0,0,0,0.1,0h5.4c0.7,0,1.3-0.5,1.3-1.3
	c0,0,0,0,0-0.1l0,0v-4.9c1.1-0.7,1.5-2.2,0.8-3.4v-0.2c0,0,1.3-0.8,1.3-4.1c-0.1-1.9-0.5-3.7-1.3-5.4c0,0,0-0.8-1.3-1.3l-4.9-12.4
	c-0.4-0.8-1.2-1.3-2.1-1.3h-28.5"/>
<path class="st7" d="M203.6,198.8c-1.3,0-1.3,0.8-1.3,0.8l-3.6,8.1c-0.8,2.1,1.3,1.3,1.3,1.3c4.9-1.3,16.5-1.3,16.5-1.3
	s11.6,0,16.5,1.3c0,0,2.1,0.8,1.3-1.3l-3.4-8.3c0,0,0-0.8-1.3-0.8h-26.1"/>
<path class="st6" d="M218.8,205.5c-1.3,0-2.4,0.8-3,1.9l-6.8,17.5c-1.9,0.9-1.9,1.9-1.9,1.9c-1.2,2.4-1.8,5-1.9,7.7
	c0,4.9,1.9,5.8,1.9,5.8c-1.1,1.5-0.7,3.7,0.8,4.8c0,0,0.1,0.1,0.1,0.1l0,0v6.8c-0.1,1,0.7,1.8,1.7,1.9c0.1,0,0.1,0,0.2,0h7.7
	c1,0.1,1.8-0.7,1.9-1.7c0-0.1,0-0.1,0-0.2v-7.7h38.7v7.7c-0.1,1,0.7,1.8,1.7,1.9c0.1,0,0.1,0,0.2,0h7.7c1,0.1,1.8-0.7,1.9-1.7
	c0-0.1,0-0.1,0-0.2v-6.6c1.6-1,2.1-3.1,1.1-4.7c0,0,0,0,0,0v-0.2c0,0,1.9-0.9,1.9-5.8c-0.1-2.7-0.7-5.3-1.9-7.7c0,0,0-0.9-1.9-1.9
	l-6.6-17.5c-0.5-1.1-1.6-1.8-2.8-1.9H219"/>
<polyline class="st8" points="249,231.8 229.7,231.8 229.7,236.7 249,236.7 249,231.8 "/>
<path class="st7" d="M220.7,210.4c-1.9,0-1.9,0.9-1.9,0.9l-4.9,11.6c-0.9,3,1.9,1.9,1.9,1.9c6.8-1.9,23.3-1.9,23.3-1.9
	s16.5,0,23.3,1.9c0,0,2.8,0.9,1.9-1.9l-4.9-11.6c0,0,0-0.9-1.9-0.9L220.7,210.4"/>
<path class="st6" d="M243.2,221.9c-1.7,0.2-3.2,1.1-3.9,2.6l-9.2,23.9c-2.6,1.3-2.6,2.6-2.6,2.6c-1.6,3.3-2.5,7-2.6,10.7
	c0,6.6,2.6,7.9,2.6,7.9c-1.5,2.1-1,5,1.1,6.6c0.1,0,0.2,0.1,0.2,0.2l0,0v9.2c0,1.4,1.1,2.6,2.5,2.6c0,0,0.1,0,0.1,0h10.7
	c1.4,0,2.6-1.1,2.6-2.5c0,0,0-0.1,0-0.1l0,0v-10.7h53.2v10.7c0,1.4,1.1,2.6,2.5,2.6c0,0,0.1,0,0.1,0h10.7c1.4,0,2.6-1.1,2.6-2.5
	c0,0,0-0.1,0-0.1l0,0v-9.2c2.2-1.4,2.9-4.3,1.5-6.6v-0.2c0,0,2.6-1.3,2.6-7.9c-0.2-3.7-1.1-7.3-2.6-10.7c0,0,0-1.3-2.6-2.6
	l-9.4-23.9c-0.8-1.5-2.3-2.5-3.9-2.6L243.2,221.9"/>
<polyline class="st7" points="284.5,257.8 258.1,257.8 258.1,264.5 284.5,264.5 284.5,257.8 "/>
<path class="st7" d="M245.8,228.4c-2.6,0-2.6,1.3-2.6,1.3l-6.6,16c-1.3,3.9,2.6,2.6,2.6,2.6c9.4-2.6,31.9-2.6,31.9-2.6
	s22.5,0,32,2.6c0,0,3.9,1.3,2.6-2.6l-6.6-16c0,0,0-1.3-2.6-1.3H245.8"/>
</svg>
