<?xml version="1.0" encoding="utf-8"?>
<!-- Generator: Adobe Illustrator 24.1.1, SVG Export Plug-In . SVG Version: 6.00 Build 0)  -->
<svg version="1.1" id="Capa_1" xmlns="http://www.w3.org/2000/svg" xmlns:xlink="http://www.w3.org/1999/xlink" x="0px" y="0px"
	 viewBox="0 0 477.6 415.4" style="enable-background:new 0 0 477.6 415.4;" xml:space="preserve">
<style type="text/css">
	.st0{fill:#7C2424;}
	.st1{fill:#F1F1F1;}
	.st2{fill:#BA3131;}
	.st3{clip-path:url(#SVGID_2_);}
	.st4{fill:#D8D8D8;}
	.st5{enable-background:new    ;}
	.st6{fill:#303030;}
</style>
<g id="somnra">
	<path class="st0" d="M247.6,10.8l208.1,372.7c5.7,10.2,2,23-8.1,28.7c-3.1,1.8-6.7,2.7-10.3,2.7H21.1C9.5,414.9,0,405.5,0,393.8
		c0-3.6,0.9-7.1,2.7-10.3L210.8,10.8c5.7-10.2,18.5-13.8,28.7-8.1C242.9,4.6,245.7,7.4,247.6,10.8z"/>
	<path class="st1" d="M237.7,80.3L395,362c2.6,4.7,0.9,10.7-3.8,13.3c-1.5,0.8-3.1,1.2-4.8,1.2H71.9c-5.4,0-9.8-4.4-9.8-9.8
		c0-1.7,0.4-3.3,1.2-4.8L220.7,80.3c2.6-4.7,8.6-6.4,13.3-3.8C235.5,77.4,236.8,78.7,237.7,80.3z"/>
</g>
<g id="s">
	<path class="st2" d="M266.9,11.3L474.9,384c5.7,10.2,2,23-8.1,28.7c-3.1,1.8-6.7,2.7-10.3,2.7H40.4c-11.7,0-21.1-9.5-21.1-21.1
		c0-3.6,0.9-7.1,2.7-10.3L230,11.3c5.7-10.2,18.5-13.8,28.7-8.1C262.2,5.1,265,7.9,266.9,11.3z"/>
	<path class="st1" d="M257,80.7l157.3,281.7c2.6,4.7,0.9,10.7-3.8,13.3c-1.5,0.8-3.1,1.2-4.8,1.2H91.2c-5.4,0-9.8-4.4-9.8-9.8
		c0-1.7,0.4-3.3,1.2-4.8L239.9,80.7c2.6-4.7,8.6-6.4,13.3-3.8C254.8,77.8,256.1,79.1,257,80.7z"/>
	<g>
		<defs>
			<path id="SVGID_1_" d="M256.6,80.2l157.3,281.7c2.6,4.7,0.9,10.7-3.8,13.3c-1.5,0.8-3.1,1.2-4.8,1.2H90.9c-5.4,0-9.8-4.4-9.8-9.8
				c0-1.7,0.4-3.3,1.2-4.8L239.6,80.2c2.6-4.7,8.6-6.4,13.3-3.8C254.5,77.3,255.8,78.6,256.6,80.2z"/>
		</defs>
		<clipPath id="SVGID_2_">
			<use xlink:href="#SVGID_1_"  style="overflow:visible;"/>
		</clipPath>
		<g class="st3">
			
				<rect x="-19.4" y="201.9" transform="matrix(0.4423 -0.8969 0.8969 0.4423 -106.1511 263.9627)" class="st4" width="357" height="30.9"/>
		</g>
	</g>
</g>
<g class="st5">
	<path class="st6" d="M155.4,347c-0.5,0-0.8-0.3-0.9-0.8l-1.5-7.9h-9.6l-1.5,7.9c-0.1,0.5-0.4,0.8-0.9,0.8h-5.8
		c-0.6,0-0.9-0.3-0.7-0.9l9-41.5c0.1-0.5,0.4-0.8,0.9-0.8h7.5c0.5,0,0.8,0.2,0.9,0.8l9,41.5c0.1,0.6-0.1,0.9-0.8,0.9H155.4z
		 M148.2,313.2l-3.5,18.8h6.9L148.2,313.2z"/>
</g>
<g class="st5">
	<path class="st6" d="M186.8,322.8c0,0.5-0.3,0.9-0.9,0.9h-5.1c-0.6,0-0.9-0.3-0.9-0.9v-4.4c0-1.4-0.8-2.2-2.2-2.2h-3.5
		c-1.5,0-2.2,0.8-2.2,2.2V338c0,1.5,0.8,2.2,2.2,2.2h3.5c1.4,0,2.2-0.7,2.2-2.2v-4.6c0-0.5,0.3-0.9,0.9-0.9h5.1
		c0.5,0,0.9,0.3,0.9,0.9v5.8c0,5.1-2.8,7.8-7.8,7.8h-6c-5.1,0-7.8-2.7-7.8-7.8V317c0-5.1,2.8-7.8,7.8-7.8h6c5,0,7.8,2.7,7.8,7.8
		V322.8z"/>
	<path class="st6" d="M213.8,322.8c0,0.5-0.3,0.9-0.9,0.9h-5.1c-0.6,0-0.9-0.3-0.9-0.9v-4.4c0-1.4-0.8-2.2-2.2-2.2h-3.5
		c-1.5,0-2.2,0.8-2.2,2.2V338c0,1.5,0.8,2.2,2.2,2.2h3.5c1.4,0,2.2-0.7,2.2-2.2v-4.6c0-0.5,0.3-0.9,0.9-0.9h5.1
		c0.5,0,0.9,0.3,0.9,0.9v5.8c0,5.1-2.8,7.8-7.8,7.8h-6c-5.1,0-7.8-2.7-7.8-7.8V317c0-5.1,2.8-7.8,7.8-7.8h6c5,0,7.8,2.7,7.8,7.8
		V322.8z"/>
	<path class="st6" d="M220.1,347c-0.6,0-0.9-0.3-0.9-0.9v-36.1c0-0.5,0.3-0.9,0.9-0.9h5.6c0.5,0,0.9,0.3,0.9,0.9v36.1
		c0,0.5-0.3,0.9-0.9,0.9H220.1z"/>
	<path class="st6" d="M232,310.1c0-0.5,0.3-0.9,0.9-0.9h13c5.1,0,7.8,2.8,7.8,7.8v22.2c0,5.1-2.7,7.8-7.8,7.8h-13
		c-0.6,0-0.9-0.3-0.9-0.9V310.1z M244.3,339.9c1.4,0,2.2-0.7,2.2-2.2v-19.2c0-1.5-0.8-2.2-2.2-2.2h-5v23.5H244.3z"/>
	<path class="st6" d="M280.5,315.5c0,0.5-0.2,0.9-0.9,0.9h-13.3v8.3h10.2c0.5,0,0.9,0.3,0.9,0.9v5.3c0,0.6-0.3,0.9-0.9,0.9h-10.2v8
		h13.3c0.6,0,0.9,0.3,0.9,0.9v5.4c0,0.5-0.2,0.9-0.9,0.9h-19.9c-0.5,0-0.8-0.3-0.8-0.9v-36.1c0-0.5,0.3-0.9,0.8-0.9h19.9
		c0.6,0,0.9,0.3,0.9,0.9V315.5z"/>
	<path class="st6" d="M308.1,309.2c0.5,0,0.9,0.3,0.9,0.9v36.1c0,0.5-0.3,0.9-0.9,0.9h-4.3c-0.5,0-0.8-0.2-1-0.7l-10.2-20.6v20.5
		c0,0.5-0.3,0.9-0.9,0.9h-5.1c-0.5,0-0.9-0.3-0.9-0.9v-36.1c0-0.5,0.3-0.9,0.9-0.9h4.3c0.5,0,0.8,0.2,1,0.7l10.2,20.6v-20.5
		c0-0.5,0.3-0.9,0.9-0.9H308.1z"/>
	<path class="st6" d="M334,309.2c0.6,0,0.9,0.3,0.9,0.9v5.4c0,0.5-0.3,0.9-0.9,0.9h-6.3v29.8c0,0.6-0.3,0.9-0.9,0.9h-5.6
		c-0.5,0-0.9-0.3-0.9-0.9v-29.8h-6.3c-0.5,0-0.9-0.3-0.9-0.9v-5.4c0-0.5,0.3-0.9,0.9-0.9H334z"/>
	<path class="st6" d="M360.8,315.5c0,0.5-0.2,0.9-0.9,0.9h-13.3v8.3h10.2c0.5,0,0.9,0.3,0.9,0.9v5.3c0,0.6-0.3,0.9-0.9,0.9h-10.2v8
		h13.3c0.6,0,0.9,0.3,0.9,0.9v5.4c0,0.5-0.2,0.9-0.9,0.9H340c-0.5,0-0.8-0.3-0.8-0.9v-36.1c0-0.5,0.3-0.9,0.8-0.9h19.9
		c0.6,0,0.9,0.3,0.9,0.9V315.5z"/>
</g>
<path class="st6" d="M286.7,278.8c-6.5,1.2-11.2,0.2-13.3-9c-2.2-9.6-13.5-14.9-24.5-13.9c-10,0.8-18.8,7.8-20.6,17.4
	c-1,5.1-3.5,5.9-7.6,5.7c-6.8-0.4-13.6-0.4-20.4,0c-6.3,0.6-10-2-12.3-7.4c-7.2-16.5-6.7-35.3,1.4-51.4c1.8-3.7,4.3-6.1,8.8-5.3
	c1.8,0.2,3.5,0.2,5.3,0c21-3.9,37.8,3.3,50.6,20.2c3.7,4.9,8.8,5.9,14.7,5.7c10.6-0.6,21.2-1,30.2,6.7c3.5,2.9,5.5,5.7,4.9,10.2v4.4
	C304.1,279,301.6,279.6,286.7,278.8z M249.4,240.6c-6.3-6.1-11.4-10.4-15.7-15.1c-5.5-5.9-12.5-4.3-18.4-2.9
	c-4.1,1-1.2,7.1-1.8,10.8v3.1c-0.2,2.7,0.8,4.3,3.9,4.3C227.1,240.6,237.1,240.6,249.4,240.6L249.4,240.6z"/>
<path class="st6" d="M319.6,220.4c-2.7,7.4-4.9,13.3-7.1,19.4c-0.8,2.5-1.6,4.1-4.9,2.9s-3.9-2.7-2.5-5.7c0.8-2.2,1.6-4.5,2.3-6.7
	c-8.6,1.6-18.6,7-18.4-11.6c-7.1,13.5-14.3,13.1-21.4,3.9c-0.6,2-0.8,2.7-1,3.5c-1,2.5,2.5,7.5-3.5,7.1c-5.1-0.2-2.9-4.5-3.1-7.1
	c-0.2-5.5,0-11,0-18.4c4.7,3.9,8.8,6.5,12.3,10c4.7,4.5,8,5.1,11.2-1.2c2.4-3.8,5.1-7.4,8-10.8c1.8,5.9,3.3,10.6,4.3,15.5
	c0.8,4.1,2.9,4.7,6.3,3.7C307.8,223,313.1,222,319.6,220.4z"/>
</svg>
