<?xml version="1.0" encoding="UTF-8" standalone="no"?>
<svg
   sodipodi:docname="otro.svg"
   version="1.1"
   viewBox="0 0 477.68 415.38"
   data-name="Capa 1"
   id="Capa_1"
   inkscape:version="1.2.2 (b0a8486541, 2022-12-01)"
   xmlns:inkscape="http://www.inkscape.org/namespaces/inkscape"
   xmlns:sodipodi="http://sodipodi.sourceforge.net/DTD/sodipodi-0.dtd"
   xmlns="http://www.w3.org/2000/svg"
   xmlns:svg="http://www.w3.org/2000/svg">
  <sodipodi:namedview
     id="namedview36"
     pagecolor="#ffffff"
     bordercolor="#000000"
     borderopacity="0.25"
     inkscape:showpageshadow="2"
     inkscape:pageopacity="0.0"
     inkscape:pagecheckerboard="0"
     inkscape:deskcolor="#d1d1d1"
     showgrid="false"
     inkscape:zoom="0.73710153"
     inkscape:cx="539.95275"
     inkscape:cy="234.70308"
     inkscape:window-width="1920"
     inkscape:window-height="1010"
     inkscape:window-x="0"
     inkscape:window-y="0"
     inkscape:window-maximized="1"
     inkscape:current-layer="Capa_1" />
  <defs
     id="defs7">
    <style
       id="style2">.cls-1{fill:none;}.cls-2{fill:#6d2915;}.cls-3{fill:#aa4b29;}.cls-4{fill:#f1f1f1;}.cls-5{clip-path:url(#clip-path);}.cls-6{fill:#d8d8d8;}.cls-7,.cls-8{fill:#1e1e1e;}.cls-8{font-size:60px;font-family:Norwester-Regular, Norwester;}.cls-9{letter-spacing:-0.03em;}</style>
    <clipPath
       id="clip-path"
       transform="translate(-0.5 -0.52)">
      <path
         class="cls-1"
         d="M257.1,80.7,414.4,362.4a9.82,9.82,0,0,1-3.8,13.3,10.05,10.05,0,0,1-4.8,1.2H91.4a9.82,9.82,0,0,1-9.8-9.8,10.05,10.05,0,0,1,1.2-4.8L240.1,80.7a9.82,9.82,0,0,1,13.3-3.8A9,9,0,0,1,257.1,80.7Z"
         id="path4" />
    </clipPath>
  </defs>
  <g
     id="somnra">
    <path
       class="cls-2"
       d="M248.1,11.3,456.2,384a21.12,21.12,0,0,1-8.1,28.7,20.58,20.58,0,0,1-10.3,2.7H21.6A21.1,21.1,0,0,1,.5,394.3,20.86,20.86,0,0,1,3.2,384L211.3,11.3a21.09,21.09,0,0,1,36.8,0Z"
       transform="translate(-0.5 -0.52)"
       id="path9" />
    <path
       class="cls-2"
       d="M238.2,80.8,395.5,362.5a9.82,9.82,0,0,1-3.8,13.3,10.05,10.05,0,0,1-4.8,1.2H72.4a9.82,9.82,0,0,1-9.8-9.8,10.05,10.05,0,0,1,1.2-4.8L221.2,80.8A9.82,9.82,0,0,1,234.5,77,10.38,10.38,0,0,1,238.2,80.8Z"
       transform="translate(-0.5 -0.52)"
       id="path11" />
  </g>
  <g
     id="s">
    <path
       class="cls-3"
       d="M267.4,11.8,475.5,384.5a21.12,21.12,0,0,1-8.1,28.7,20.58,20.58,0,0,1-10.3,2.7H40.9a21.1,21.1,0,0,1-21.1-21.1,20.86,20.86,0,0,1,2.7-10.3l208-372.7a21,21,0,0,1,28.7-8.1A20.62,20.62,0,0,1,267.4,11.8Z"
       transform="translate(-0.5 -0.52)"
       id="path14" />
    <path
       class="cls-4"
       d="M257.5,81.2,414.8,362.9a9.82,9.82,0,0,1-3.8,13.3,10.05,10.05,0,0,1-4.8,1.2H91.7a9.82,9.82,0,0,1-9.8-9.8,10.05,10.05,0,0,1,1.2-4.8L240.4,81.2a9.78,9.78,0,0,1,17.1,0Z"
       transform="translate(-0.5 -0.52)"
       id="path16" />
    <g
       class="cls-5"
       clip-path="url(#clip-path)"
       id="g20">
      <rect
         class="cls-6"
         x="-18.85"
         y="202.45"
         width="357.01"
         height="30.9"
         transform="translate(-106.88 264.2) rotate(-63.75)"
         id="rect18" />
    </g>
  </g>
  <path
     class="cls-7"
     d="M250.5,146.43c6.93,0,17,1.2,17.2,9.09,0,3.1-.48,6-.71,9.08-2.16,13.14-8.13,45.4-11.47,71.2h-9.8c-2.87-23.89-8.84-56.39-11.23-70.73a65.59,65.59,0,0,1-1.44-9.55C232.82,148.35,243.09,146.43,250.5,146.43Zm.24,138.84c-9.56,0-16.73-6.93-16.73-17.21a16.73,16.73,0,1,1,16.73,17.21Z"
     transform="translate(-0.5 -0.52)"
     id="path23" />
  <g
     aria-label="OTRA"
     transform="translate(183.89 362.24)"
     id="text33"
     class="cls-8"
     style="font-size:60px;font-family:Norwester-Regular, Norwester;fill:#1e1e1e">
    <path
       d="M 3,-8.64 C 3,-3 6,0 11.64,0 h 6.72 C 24,0 27,-3 27,-8.64 V -39.36 C 27,-45 24,-48 18.36,-48 H 11.64 C 6,-48 3,-45 3,-39.36 Z m 10.38,0.9 c -1.56,0 -2.4,-0.78 -2.4,-2.4 v -27.72 c 0,-1.56 0.84,-2.4 2.4,-2.4 h 3.48 c 1.56,0 2.4,0.84 2.4,2.4 v 27.72 c 0,1.62 -0.84,2.4 -2.4,2.4 z"
       id="path414" />
    <path
       d="m 30.960001,-48 c -0.6,0 -0.96,0.36 -0.96,0.96 v 6 c 0,0.6 0.36,0.96 0.96,0.96 h 6.96 v 39.12 c 0,0.66 0.36,0.96 0.96,0.96 h 6.24 c 0.66,0 0.96,-0.3 0.96,-0.96 v -39.12 h 6.96 c 0.66,0 0.96,-0.36 0.96,-0.96 v -6 c 0,-0.6 -0.3,-0.96 -0.96,-0.96 z"
       id="path416" />
    <path
       d="m 83.459999,-39.36 c 0,-5.64 -3,-8.64 -8.64,-8.64 h -15.06 c -0.6,0 -0.96,0.36 -0.96,0.96 v 46.08 c 0,0.6 0.36,0.96 0.96,0.96 h 6.24 c 0.6,0 0.96,-0.36 0.96,-0.96 v -15.12 h 4.14 l 4.02,15.24 c 0.12,0.54 0.42,0.84 1.02,0.84 h 6.24 c 0.66,0 1.02,-0.36 0.84,-1.08 l -4.14,-15.72 c 2.88,-1.26 4.38,-3.9 4.38,-7.92 z m -16.5,15.36 v -16.08 h 5.94 c 1.56,0 2.4,0.84 2.4,2.4 v 11.28 c 0,1.56 -0.84,2.4 -2.4,2.4 z"
       id="path418" />
    <path
       d="m 116.58,0 c 0.72,0 0.96,-0.36 0.84,-1.02 l -9.96,-46.14 c -0.12,-0.6 -0.48,-0.84 -1.02,-0.84 h -8.339996 c -0.54,0 -0.9,0.24 -1.02,0.84 l -9.96,46.14 c -0.18,0.66 0.12,1.02 0.78,1.02 h 6.42 c 0.54,0 0.84,-0.3 0.96,-0.84 l 1.62,-8.76 H 107.58 l 1.68,8.76 c 0.12,0.54 0.42,0.84 0.96,0.84 z m -10.5,-16.56 H 98.400004 L 102.24,-37.5 Z"
       id="path420" />
  </g>
</svg>
