<?xml version="1.0" encoding="utf-8"?>
<!-- Generator: Adobe Illustrator 24.1.1, SVG Export Plug-In . SVG Version: 6.00 Build 0)  -->
<svg version="1.1" id="Capa_1" xmlns="http://www.w3.org/2000/svg" xmlns:xlink="http://www.w3.org/1999/xlink" x="0px" y="0px"
	 viewBox="0 0 477.6 425.2" style="enable-background:new 0 0 477.6 425.2;" xml:space="preserve">
<style type="text/css">
	.st0{fill:#99531A;}
	.st1{fill:#D1731E;}
	.st2{fill:#F1F1F1;}
	.st3{clip-path:url(#SVGID_2_);}
	.st4{fill:#D8D8D8;}
	.st5{enable-background:new    ;}
	.st6{fill:#303030;}
	.st7{fill:#282828;}
</style>
<g id="somnra">
	<path class="st0" d="M247.6,10.8l208.1,372.7c5.7,10.2,2,23-8.1,28.7c-3.1,1.8-6.7,2.7-10.3,2.7H21.1C9.5,414.9,0,405.5,0,393.8
		c0-3.6,0.9-7.1,2.7-10.3L210.8,10.8c5.7-10.2,18.5-13.8,28.7-8.1C242.9,4.6,245.7,7.4,247.6,10.8z"/>
	<path class="st0" d="M237.7,80.3L395,362c2.6,4.7,0.9,10.7-3.8,13.3c-1.5,0.8-3.1,1.2-4.8,1.2H71.9c-5.4,0-9.8-4.4-9.8-9.8
		c0-1.7,0.4-3.3,1.2-4.8L220.7,80.3c2.6-4.7,8.6-6.4,13.3-3.8C235.5,77.4,236.8,78.7,237.7,80.3z"/>
</g>
<g id="s">
	<path class="st1" d="M266.9,11.3L474.9,384c5.7,10.2,2,23-8.1,28.7c-3.1,1.8-6.7,2.7-10.3,2.7H40.4c-11.7,0-21.1-9.5-21.1-21.1
		c0-3.6,0.9-7.1,2.7-10.3L230,11.3c5.7-10.2,18.5-13.8,28.7-8.1C262.2,5.1,265,7.9,266.9,11.3z"/>
	<path class="st2" d="M257,80.7l157.3,281.7c2.6,4.7,0.9,10.7-3.8,13.3c-1.5,0.8-3.1,1.2-4.8,1.2H91.2c-5.4,0-9.8-4.4-9.8-9.8
		c0-1.7,0.4-3.3,1.2-4.8L239.9,80.7c2.6-4.7,8.6-6.4,13.3-3.8C254.8,77.8,256.1,79.1,257,80.7z"/>
	<g>
		<defs>
			<path id="SVGID_1_" d="M256.6,80.2l157.3,281.7c2.6,4.7,0.9,10.7-3.8,13.3c-1.5,0.8-3.1,1.2-4.8,1.2H90.9c-5.4,0-9.8-4.4-9.8-9.8
				c0-1.7,0.4-3.3,1.2-4.8L239.6,80.2c2.6-4.7,8.6-6.4,13.3-3.8C254.5,77.3,255.8,78.6,256.6,80.2z"/>
		</defs>
		<clipPath id="SVGID_2_">
			<use xlink:href="#SVGID_1_"  style="overflow:visible;"/>
		</clipPath>
		<g class="st3">
			
				<rect x="-19.4" y="201.9" transform="matrix(0.4423 -0.8969 0.8969 0.4423 -106.1511 263.9627)" class="st4" width="357" height="30.9"/>
		</g>
	</g>
</g>
<g class="st5">
	<path class="st6" d="M157.7,314.4c0.7,0,1,0.4,0.9,1.1l-8.1,36.5c-0.1,0.6-0.5,0.9-1.1,0.9h-4.8c-0.6,0-0.9-0.3-1.1-0.9l-8.1-36.5
		c-0.1-0.7,0.1-1.1,0.9-1.1h4.6c0.6,0,0.9,0.3,1.1,0.9l5,25.7l5.1-25.7c0.1-0.6,0.5-0.9,1.1-0.9H157.7z"/>
	<path class="st6" d="M163.2,352.8c-0.5,0-0.8-0.3-0.8-0.8V320c0-0.5,0.2-0.8,0.8-0.8h5c0.5,0,0.8,0.3,0.8,0.8V352
		c0,0.5-0.3,0.8-0.8,0.8H163.2z"/>
	<path class="st6" d="M191.8,352.8c-0.4,0-0.7-0.2-0.8-0.7l-1.5-6h-9l-1.5,6c-0.1,0.4-0.3,0.7-0.8,0.7h-4.7c-0.5,0-0.8-0.3-0.6-0.8
		l8-32.1c0.1-0.5,0.4-0.7,0.8-0.7h6.7c0.4,0,0.7,0.2,0.8,0.7l8,32.1c0.1,0.5-0.1,0.8-0.7,0.8H191.8z M185,327.5l-3,13.1h6L185,327.5
		z"/>
	<path class="st6" d="M232.3,331.3c0,0.5-0.3,0.8-0.8,0.8H227c-0.5,0-0.8-0.3-0.8-0.8v-3.9c0-1.2-0.7-1.9-1.9-1.9h-3.1
		c-1.3,0-1.9,0.7-1.9,1.9v17.4c0,1.3,0.7,1.9,1.9,1.9h3.1c1.2,0,1.9-0.6,1.9-1.9v-4.1c0-0.5,0.2-0.8,0.8-0.8h4.5
		c0.5,0,0.8,0.3,0.8,0.8v5.2c0,4.5-2.4,6.9-6.9,6.9H220c-4.5,0-7-2.4-7-6.9v-19.8c0-4.5,2.4-6.9,7-6.9h5.4c4.5,0,6.9,2.4,6.9,6.9
		V331.3z"/>
	<path class="st6" d="M237.1,326.1c0-4.5,2.4-6.9,6.9-6.9h5.4c4.5,0,6.9,2.4,6.9,6.9v19.8c0,4.5-2.4,6.9-6.9,6.9H244
		c-4.5,0-6.9-2.4-6.9-6.9V326.1z M248.3,346.6c1.2,0,1.9-0.6,1.9-1.9v-17.4c0-1.2-0.7-1.9-1.9-1.9h-3.1c-1.2,0-1.9,0.7-1.9,1.9v17.4
		c0,1.3,0.7,1.9,1.9,1.9H248.3z"/>
	<path class="st6" d="M280.3,335.8c0,2.8-0.9,4.8-2.7,5.9l2.5,10.3c0.1,0.6-0.1,0.9-0.7,0.9h-4.7c-0.5,0-0.7-0.2-0.8-0.7l-2.3-9.5
		h-4.3v9.4c0,0.5-0.3,0.8-0.8,0.8h-4.7c-0.5,0-0.8-0.3-0.8-0.8V320c0-0.5,0.3-0.8,0.8-0.8h11.5c4.5,0,6.9,2.4,6.9,6.9V335.8z
		 M272.1,336.5c1.2,0,1.9-0.7,1.9-1.9v-7.2c0-1.2-0.7-1.9-1.9-1.9h-4.8v11.1H272.1z"/>
</g>
<g class="st5">
	<path class="st6" d="M302.5,319.2c0.5,0,0.8,0.3,0.8,0.8v4.8c0,0.5-0.2,0.8-0.8,0.8H297V352c0,0.5-0.2,0.8-0.8,0.8h-5
		c-0.5,0-0.8-0.2-0.8-0.8v-26.5h-5.6c-0.5,0-0.8-0.3-0.8-0.8V320c0-0.5,0.3-0.8,0.8-0.8H302.5z"/>
</g>
<g class="st5">
	<path class="st6" d="M321.3,352.8c-0.4,0-0.7-0.2-0.8-0.7l-1.5-6h-9l-1.5,6c-0.1,0.4-0.3,0.7-0.8,0.7H303c-0.5,0-0.8-0.3-0.6-0.8
		l8-32.1c0.1-0.5,0.4-0.7,0.8-0.7h6.7c0.4,0,0.7,0.2,0.8,0.7l8,32.1c0.1,0.5-0.1,0.8-0.7,0.8H321.3z M314.5,327.5l-3,13.1h6
		L314.5,327.5z"/>
</g>
<g class="st5">
	<path class="st6" d="M329.6,320c0-0.5,0.2-0.8,0.8-0.8h11.5c4.5,0,6.9,2.4,6.9,7v19.7c0,4.5-2.4,6.9-6.9,6.9h-11.5
		c-0.5,0-0.8-0.2-0.8-0.8V320z M340.5,346.5c1.2,0,1.9-0.6,1.9-1.9v-17c0-1.3-0.7-2-1.9-2h-4.4v20.9H340.5z"/>
</g>
<g class="st5">
	<path class="st6" d="M371.1,352.8c-0.4,0-0.7-0.2-0.8-0.7l-1.5-6h-9l-1.5,6c-0.1,0.4-0.3,0.7-0.8,0.7h-4.7c-0.5,0-0.8-0.3-0.6-0.8
		l8-32.1c0.1-0.5,0.4-0.7,0.8-0.7h6.7c0.4,0,0.7,0.2,0.8,0.7l8,32.1c0.1,0.5-0.1,0.8-0.7,0.8H371.1z M364.3,327.5l-3,13.1h6
		L364.3,327.5z"/>
</g>
<path class="st7" d="M313.5,207.4v86.4h-12.3v-66l-12.6,12.6H278l23.3-23.3v-9.9L313.5,207.4z M268.4,214.6h-9.9l-26,26h10.8
	l25.6-25.8L268.4,214.6z M245.7,214.6H236l-26,26h10.6l25.6-25.8L245.7,214.6z M223.4,214.9l-0.4-0.4h-9.9l-6.9,6.9v-14.1H194v86.4
	h12.3v-61.7L223.4,214.9z M291.2,214.6h-9.9l-26,26h10.6l25.8-25.8L291.2,214.6z"/>
</svg>
