<?xml version="1.0" encoding="UTF-8" standalone="no"?>
<!-- Created with Inkscape (http://www.inkscape.org/) -->

<svg
   version="1.1"
   id="svg2"
   width="546"
   height="546"
   viewBox="0 0 546 546"
   sodipodi:docname="engranaje.svg"
   inkscape:version="1.2.2 (b0a8486541, 2022-12-01)"
   xmlns:inkscape="http://www.inkscape.org/namespaces/inkscape"
   xmlns:sodipodi="http://sodipodi.sourceforge.net/DTD/sodipodi-0.dtd"
   xmlns="http://www.w3.org/2000/svg"
   xmlns:svg="http://www.w3.org/2000/svg">
  <defs
     id="defs6" />
  <sodipodi:namedview
     id="namedview4"
     pagecolor="#ffffff"
     bordercolor="#000000"
     borderopacity="0.25"
     inkscape:showpageshadow="2"
     inkscape:pageopacity="0.0"
     inkscape:pagecheckerboard="0"
     inkscape:deskcolor="#d1d1d1"
     showgrid="false"
     inkscape:zoom="1.1215283"
     inkscape:cx="285.77076"
     inkscape:cy="292.45806"
     inkscape:window-width="1920"
     inkscape:window-height="1010"
     inkscape:window-x="0"
     inkscape:window-y="0"
     inkscape:window-maximized="1"
     inkscape:current-layer="g8" />
  <g
     inkscape:groupmode="layer"
     inkscape:label="Image"
     id="g8">
    <path
       style="fill:#000000"
       d="m 231.35774,544.65799 c -1.86293,-1.2676 -4.25389,-3.47527 -5.31325,-4.90593 -1.15734,-1.56298 -5.06437,-15.06694 -9.78892,-33.83365 -4.32456,-17.17785 -8.36956,-31.84303 -8.98891,-32.58929 -0.61934,-0.74627 -4.3557,-2.57486 -8.30302,-4.06355 -3.94732,-1.48869 -11.34054,-4.63527 -16.42939,-6.99239 l -9.25244,-4.28569 -19.24756,11.57344 c -10.58615,6.36539 -22.51186,13.13601 -26.50158,15.04582 -6.32417,3.02728 -7.8624,3.38588 -12,2.79755 -4.61437,-0.65612 -5.44006,-1.37407 -29.777148,-25.89191 -14.19104,-14.29643 -25.79354,-26.82365 -26.79157,-28.92684 -3.04161,-6.40971 -1.85662,-9.29691 16.38177,-39.91379 l 11.9964,-20.13843 -4.86942,-11.09003 c -2.67818,-6.09952 -5.88574,-13.65986 -7.12791,-16.80075 -1.24217,-3.14089 -2.81029,-6.16867 -3.48472,-6.7284 -0.67443,-0.55972 -12.89184,-3.98324 -27.14981,-7.60781 C 7.7212421,320.90322 5.8785721,320.29139 2.3113421,316.22855 l -3.02464004,-3.44488 v -38.43041 -38.43041 l 2.92153004,-3.32744 c 3.51306,-4.00116 4.992,-4.49553 40.9816999,-13.69921 15.02911,-3.8434 27.93229,-7.49148 28.67375,-8.10683 0.74146,-0.61536 2.76275,-4.79022 4.49175,-9.27747 1.72901,-4.48725 4.43546,-11.01044 6.01434,-14.49598 l 2.8707,-6.33734 -12.30783,-20.66266 c -22.45724,-37.7017 -23.25709,-39.87977 -17.71573,-48.24122 1.61162,-2.43179 12.97412,-14.352996 25.25,-26.491566 23.021448,-22.763943 29.086368,-27.378989 34.042568,-25.904399 3.46713,1.031556 18.31526,9.145197 38.22626,20.888429 9.87198,5.822353 18.33629,10.586097 18.80959,10.586097 0.72608,0 11.36665,-4.413294 31.49542,-13.063066 5.10712,-2.194639 4.95436,-1.836962 10.80515,-25.300212 8.99791,-36.084067 11.35342,-43.3528215 15.12085,-46.6606615 l 3.38954,-2.976061 h 38.43041 38.43041 l 3.51923,3.089927 c 4.11937,3.616854 4.51957,4.8194675 14.1132,42.4100735 3.64955,14.3 7.05859,26.517411 7.57564,27.149803 0.51705,0.632391 3.50992,2.163166 6.65081,3.401721 3.14089,1.238555 10.38024,4.25489 16.08745,6.702967 8.98708,3.854964 10.71393,4.297413 12.89461,3.303829 1.38483,-0.630971 11.1153,-6.239649 21.62326,-12.463728 26.6534,-15.787348 28.29554,-16.594592 33.75764,-16.594592 6.19046,0 8.89713,2.223251 35.45423,29.121997 19.4643,19.714702 25.39352,27.026242 25.39352,31.313692 0,2.29282 -7.90997,16.94588 -20.07803,37.19416 -6.00709,9.99609 -10.92197,18.83075 -10.92197,19.63258 0,0.80183 1.73058,5.23331 3.84574,9.84772 2.11516,4.61442 5.06693,11.61947 6.55951,15.56679 1.49257,3.94732 3.29623,7.66034 4.00812,8.25117 0.7119,0.59082 13.4675,4.18727 28.34579,7.9921 14.87828,3.80484 29.60436,7.72262 32.7246,8.70619 7.0135,2.21081 11.11669,6.50653 12.01752,12.5814 0.35006,2.36071 0.49298,19.68033 0.3176,38.48805 l -0.31888,34.19585 -3.46807,3.57675 c -4.04918,4.17607 -5.54285,4.67117 -42.60217,14.12117 -14.26137,3.6366 -26.44655,7.12914 -27.07819,7.76119 -0.98349,0.98414 -3.2014,6.0415 -13.01967,29.68796 l -1.46933,3.53877 11.93009,19.96123 c 12.67215,21.20282 16.96935,29.14459 18.32226,33.86193 1.67747,5.84901 -1.67699,10.38371 -25.35739,34.27919 -23.66337,23.87829 -29.06102,28.32011 -34.41427,28.32011 -4.01325,0 -15.63456,-5.9709 -38.69693,-19.88204 -9.22564,-5.56488 -16.96109,-10.11796 -17.1899,-10.11796 -1.18334,0 -34.12827,14.42721 -35.12347,15.38124 -0.64187,0.61532 -4.13169,12.75652 -7.75514,26.98044 -9.25828,36.34352 -10.05247,38.73658 -14.18569,42.7441 l -3.50069,3.39422 -37.21663,0.30473 -37.21663,0.30472 z M 298.2867,382.98888 c 29.90145,-7.81352 57.18797,-29.71825 71.5987,-57.47712 9.88068,-19.03279 13.03232,-33.90604 12.11189,-57.1585 -0.63796,-16.11645 -3.13497,-26.43734 -9.77816,-40.41605 -16.20304,-34.09467 -49.15598,-59.11416 -84.29603,-64.0017 -35.65606,-4.9593 -68.56774,5.61516 -94.48414,30.35756 -35.66001,34.04462 -44.58473,88.13341 -21.6634,131.2923 15.4799,29.14733 42.58465,50.38368 73.83229,57.847 9.30879,2.22335 11.6747,2.39206 27.67885,1.97374 12.97029,-0.33901 19.4413,-0.96469 25,-2.41723 z"
       id="path170" />
  </g>
</svg>
