<svg xmlns="http://www.w3.org/2000/svg" viewBox="0 0 500 500"><defs><style>.cls-1{fill:#0c0c0c;}.cls-2{fill:#0468a0;}.cls-3{fill:#f2f2f2;}.cls-4{fill:#1c1c1c;}.cls-5{fill:#0071bc;}</style></defs><g id="Capa_1" data-name="Capa 1"><g id="somnra"><rect class="cls-1" x="224.66" y="265.33" width="38.25" height="219.37" rx="19.13"/><path class="cls-2" d="M261.73,37.49l116.8,209.24a21.1,21.1,0,0,1-18.42,31.38H126.51a21.1,21.1,0,0,1-18.42-31.38L224.89,37.49A21.09,21.09,0,0,1,261.73,37.49Z"/><path class="cls-3" d="M251.84,74.32l92.21,165.19A9.77,9.77,0,0,1,335.51,254H151.1a9.77,9.77,0,0,1-8.53-14.53L234.78,74.32A9.77,9.77,0,0,1,251.84,74.32Z"/></g><g id="s"><rect class="cls-4" x="236.72" y="265.63" width="38.25" height="219.37" rx="19.13"/><path class="cls-5" d="M390.59,247,273.79,37.79a21.09,21.09,0,0,0-36.84,0L120.15,247a21.1,21.1,0,0,0,18.42,31.38h233.6A21.1,21.1,0,0,0,390.59,247Zm-43,7.31H163.17a9.77,9.77,0,0,1-8.53-14.53l92.2-165.19a9.77,9.77,0,0,1,17.06,0l92.21,165.19A9.77,9.77,0,0,1,347.58,254.34Z"/></g></g></svg>